<svg width="103" height="32" viewBox="0 0 103 32" fill="none" xmlns="http://www.w3.org/2000/svg">
<g clip-path="url(#clip0_14_1062)">
<path d="M54.2733 8.04C54.2733 9.19325 53.3441 10.1219 52.1908 10.1219C51.0376 10.1219 50.1089 9.19325 50.1089 8.04C50.1089 6.88674 51.0059 5.95811 52.1908 5.95811C53.3767 5.99011 54.2733 6.91906 54.2733 8.04ZM45.6885 12.2364V12.749C45.6885 12.749 44.6959 11.4671 42.5817 11.4671C39.0906 11.4671 36.3675 14.126 36.3675 17.8094C36.3675 21.4612 39.0586 24.1517 42.5817 24.1517C44.7279 24.1517 45.6885 22.8384 45.6885 22.8384V23.3827C45.6885 23.639 45.8812 23.8307 46.1372 23.8307H48.7314V11.7865H46.1372C45.8812 11.7874 45.6885 12.0121 45.6885 12.2364ZM45.6885 19.9556C45.2086 20.6605 44.2473 21.2692 43.0944 21.2692C41.0445 21.2692 39.4746 19.9879 39.4746 17.8094C39.4746 15.6312 41.0445 14.3499 43.0944 14.3499C44.2156 14.3499 45.2406 14.9906 45.6885 15.6632V19.9556ZM50.6536 11.7874H53.7284V23.8317H50.6536V11.7874ZM96.5871 11.4668C94.4729 11.4668 93.4796 12.7487 93.4796 12.7487V5.99011H90.4048V23.8317H92.9996C93.2559 23.8317 93.4476 23.6074 93.4476 23.383V22.8387C93.4476 22.8387 94.4409 24.152 96.5544 24.152C100.046 24.152 102.769 21.4621 102.769 17.8104C102.769 14.1586 100.046 11.4668 96.5871 11.4668ZM96.0744 21.2368C94.8888 21.2368 93.9602 20.6289 93.4796 19.9236V15.6312C93.9602 14.9906 94.9852 14.3179 96.0744 14.3179C98.1243 14.3179 99.6939 15.5992 99.6939 17.7774C99.6939 19.9556 98.1246 21.2368 96.0744 21.2368ZM88.8035 16.6888V23.8637H85.7281V17.0408C85.7281 15.0552 85.0874 14.254 83.3588 14.254C82.4302 14.254 81.4689 14.7346 80.8594 15.4395V23.832H77.7852V11.7878H80.2187C80.4751 11.7878 80.6674 12.0121 80.6674 12.2364V12.749C81.5643 11.8198 82.7492 11.4671 83.9342 11.4671C85.2798 11.4671 86.401 11.8521 87.298 12.6207C88.3866 13.5176 88.8035 14.6706 88.8035 16.6888ZM70.3207 11.4668C68.2071 11.4668 67.2139 12.7487 67.2139 12.7487V5.99011H64.1391V23.8317H66.7333C66.9896 23.8317 67.1819 23.6074 67.1819 23.383V22.8387C67.1819 22.8387 68.1751 24.152 70.2887 24.152C73.7805 24.152 76.503 21.4621 76.503 17.8104C76.535 14.1583 73.8125 11.4668 70.3207 11.4668ZM69.8081 21.2368C68.6231 21.2368 67.6945 20.6289 67.2139 19.9236V15.6312C67.6945 14.9906 68.7195 14.3179 69.8081 14.3179C71.8586 14.3179 73.4278 15.5992 73.4278 17.7774C73.4278 19.9556 71.8586 21.2368 69.8081 21.2368ZM61.4802 11.4668C62.4089 11.4668 62.8895 11.6274 62.8895 11.6274V14.4779C62.8895 14.4779 60.327 13.613 58.7257 15.4392V23.8633H55.6503V11.7874H58.2451C58.5014 11.7874 58.6931 12.0118 58.6931 12.2361V12.7487C59.2704 12.0758 60.5196 11.4668 61.4802 11.4668ZM29.5452 22.7424C29.3852 22.3581 29.2249 21.9418 29.0649 21.5892C28.8082 21.0129 28.5519 20.4679 28.3283 19.9556L28.2963 19.9236C26.0857 15.1186 23.7159 10.2502 21.217 5.44581L21.121 5.25317C20.8582 4.75477 20.6021 4.25287 20.3527 3.7476C20.0321 3.17065 19.7121 2.56266 19.1995 1.98571C18.1745 0.704458 16.701 -0.000488281 15.1317 -0.000488281C13.5298 -0.000488281 12.0886 0.704461 11.032 1.9214C10.5513 2.49771 10.1987 3.10634 9.8787 3.68329C9.62871 4.18824 9.37259 4.69013 9.1104 5.18885L9.01408 5.38148C6.54757 10.1859 4.14538 15.0546 1.93518 19.8593L1.90287 19.923C1.67887 20.4362 1.42223 20.9805 1.16592 21.5565C1.00592 21.9092 0.845924 22.2935 0.685927 22.7098C0.269295 23.8947 0.140971 25.016 0.301608 26.1696C0.653921 28.5721 2.25517 30.5893 4.46569 31.4869C5.29863 31.8395 6.16357 31.9995 7.06019 31.9995C7.31651 31.9995 7.63651 31.9675 7.89315 31.9352C8.95041 31.8072 10.0393 31.4552 11.0966 30.8466C12.4099 30.1096 13.6591 29.053 15.0684 27.5154C16.4776 29.053 17.7589 30.1096 19.0401 30.8466C20.0977 31.4552 21.1863 31.8072 22.2432 31.9352C22.4996 31.9678 22.8202 31.9995 23.0765 31.9995C23.9735 31.9995 24.8701 31.8395 25.6707 31.4869C27.9132 30.5893 29.4825 28.5401 29.8351 26.1696C30.0895 25.0486 29.9615 23.928 29.5452 22.7424ZM15.0994 24.408C13.3695 22.2298 12.2483 20.1799 11.8643 18.4507C11.7043 17.7137 11.6719 17.0731 11.7683 16.4965C11.8319 15.9838 12.0246 15.5352 12.2809 15.1509C12.8895 14.2866 13.9145 13.7416 15.0997 13.7416C16.2853 13.7416 17.3422 14.2543 17.9189 15.1509C18.1752 15.5352 18.3672 15.9842 18.4318 16.4965C18.5275 17.0734 18.4955 17.7457 18.3355 18.4507C17.9499 20.1479 16.8286 22.1981 15.0994 24.408ZM27.8793 25.9136C27.6553 27.5791 26.534 29.021 24.9648 29.6616C24.1962 29.9816 23.3629 30.0779 22.5306 29.9816C21.73 29.8853 20.9287 29.629 20.0964 29.149C18.9432 28.5077 17.7902 27.5154 16.4447 26.0415C18.5585 23.4474 19.8398 21.0765 20.3204 18.963C20.5447 17.9697 20.5771 17.0731 20.4804 16.2398C20.3527 15.4392 20.0641 14.7023 19.6158 14.0616C18.6222 12.6197 16.9563 11.7874 15.0991 11.7874C13.2418 11.7874 11.5759 12.6524 10.583 14.0616C10.1347 14.7023 9.84606 15.4392 9.71806 16.2398C9.59006 17.0731 9.62174 18.0017 9.87806 18.963C10.3584 21.0765 11.6716 23.4791 13.7535 26.0736C12.4403 27.5471 11.255 28.5404 10.1017 29.181C9.26879 29.6616 8.46849 29.918 7.66787 30.0136C6.80324 30.11 5.96998 29.9816 5.23336 29.6936C3.66411 29.053 2.54285 27.6111 2.31885 25.9456C2.22285 25.1449 2.28653 24.3443 2.60717 23.4474C2.70285 23.1267 2.86348 22.8067 3.02348 22.4224C3.24779 21.9098 3.50347 21.3648 3.7601 20.8205L3.79243 20.7569C6.0023 15.9838 8.3725 11.1151 10.839 6.37475L10.935 6.18211C11.1916 5.70212 11.448 5.18949 11.7039 4.70886C11.9603 4.19623 12.2483 3.7156 12.6009 3.29897C13.2735 2.53098 14.1701 2.11403 15.1634 2.11403C16.1567 2.11403 17.0533 2.53098 17.7259 3.29897C18.0785 3.71656 18.3665 4.19719 18.6228 4.70886C18.8795 5.18949 19.1358 5.70212 19.3915 6.18211L19.4878 6.37475C21.9167 11.1348 24.2554 15.9404 26.5027 20.7889V20.8209C26.7593 21.3341 26.9833 21.9101 27.2396 22.4234C27.3996 22.8071 27.5599 23.1271 27.6559 23.4477C27.9116 24.2797 28.0076 25.0809 27.8793 25.9136Z" fill="#595F65"/>
</g>
<defs>
<clipPath id="clip0_14_1062">
<rect width="102.564" height="32" fill="white" transform="translate(0.219482)"/>
</clipPath>
</defs>
</svg>
