<svg width="161" height="32" viewBox="0 0 161 32" fill="none" xmlns="http://www.w3.org/2000/svg">
<g clip-path="url(#clip0_14_1074)">
<path d="M10.0795 13.446L16.2945 7.23355L22.5121 13.4511L26.1263 9.8343L16.2945 0L6.46277 9.83177L10.0795 13.446Z" fill="#595F65"/>
<path d="M0.291992 16.0005L3.90745 12.385L7.5229 16.0005L3.90745 19.6159L0.291992 16.0005Z" fill="#595F65"/>
<path d="M10.0795 18.5538L16.2945 24.7688L22.512 18.5513L26.1288 22.163L26.1262 22.1655L16.2945 31.9998L6.4627 22.1706L6.45764 22.1655L10.0795 18.5538Z" fill="#595F65"/>
<path d="M25.0601 16.0015L28.6755 12.386L32.291 16.0015L28.6755 19.6169L25.0601 16.0015Z" fill="#595F65"/>
<path d="M19.9619 15.999L16.2946 12.3291L13.5826 15.0411L13.2692 15.3519L12.6272 15.9939L12.6222 15.999L12.6272 16.0065L16.2946 19.6713L19.9619 16.0015L19.9644 15.999H19.9619Z" fill="#595F65"/>
<path d="M37.932 7.75391H45.7974C47.7486 7.75391 49.2246 8.2594 50.2255 9.27037C50.6026 9.64382 50.8999 10.09 51.0993 10.5818C51.2987 11.0736 51.3961 11.6008 51.3856 12.1314V12.1795C51.3924 12.6141 51.3319 13.0472 51.2062 13.4634C51.0942 13.8217 50.9316 14.1621 50.7234 14.4744C50.5293 14.7689 50.2944 15.0344 50.0258 15.2629C49.7634 15.4888 49.4759 15.6839 49.169 15.8443C50.054 16.1525 50.8499 16.6732 51.4867 17.3607C52.0495 18.001 52.3309 18.8856 52.3309 20.0145V20.0626C52.3469 20.7676 52.1934 21.4662 51.8835 22.0997C51.5832 22.6834 51.1429 23.1835 50.6021 23.5555C49.9906 23.9654 49.3098 24.2609 48.5928 24.4275C47.7409 24.6295 46.8675 24.7271 45.992 24.7181H37.932V7.75391ZM45.0089 14.6134C45.6894 14.6463 46.3666 14.4999 46.9727 14.1888C47.2091 14.0507 47.4021 13.8492 47.5298 13.6071C47.6576 13.365 47.715 13.092 47.6955 12.8189V12.7709C47.708 12.5193 47.6569 12.2686 47.5469 12.042C47.4369 11.8154 47.2716 11.6201 47.0662 11.4743C46.6466 11.1761 46.0409 11.0269 45.249 11.0269H41.569V14.6134H45.0089ZM46.0021 21.4501C46.6801 21.4881 47.3549 21.333 47.9483 21.0028C48.1794 20.8543 48.3665 20.6465 48.4901 20.4011C48.6137 20.1558 48.6692 19.8818 48.6509 19.6076V19.5596C48.66 19.2991 48.6051 19.0402 48.491 18.8058C48.3769 18.5714 48.207 18.3686 47.9963 18.215C47.5616 17.878 46.8589 17.7095 45.8884 17.7095H41.569V21.4501H46.0021Z" fill="#595F65"/>
<path d="M57.0167 7.75391H60.7498V24.7232H57.0167V7.75391Z" fill="#595F65"/>
<path d="M66.3987 7.75391H69.8411L77.7975 18.1973V7.75391H81.4825V24.7232H78.3055L70.0888 13.936V24.7232H66.3987V7.75391Z" fill="#595F65"/>
<path d="M92.7852 7.63281H96.2225L103.494 24.7234H99.5967L98.0448 20.9171H90.8694L89.3176 24.7234H85.5112L92.7852 7.63281ZM96.7129 17.6213L94.4533 12.1165L92.2039 17.6213H96.7129Z" fill="#595F65"/>
<path d="M107.53 7.75391H110.973L118.924 18.1973V7.75391H122.609V24.7232H119.432L111.215 13.936V24.7232H107.53V7.75391Z" fill="#595F65"/>
<path d="M136.045 25.0215C134.855 25.0317 133.676 24.8013 132.577 24.3442C131.543 23.9172 130.605 23.2875 129.818 22.4923C129.031 21.6971 128.411 20.7524 127.995 19.7139C127.556 18.6276 127.333 17.4659 127.34 16.2942V16.2462C127.321 13.9367 128.209 11.712 129.815 10.0515C130.605 9.24033 131.55 8.59728 132.595 8.16093C133.731 7.69022 134.952 7.45547 136.181 7.47093C136.909 7.4655 137.635 7.53068 138.35 7.66555C138.962 7.78122 139.56 7.95993 140.134 8.19884C140.656 8.41838 141.152 8.6947 141.613 9.02278C142.063 9.34277 142.486 9.69952 142.877 10.0894L140.503 12.8291C139.897 12.2696 139.217 11.796 138.481 11.4213C137.759 11.076 136.967 10.903 136.166 10.9158C135.5 10.9087 134.84 11.0434 134.23 11.311C133.62 11.5786 133.074 11.9728 132.628 12.4677C132.186 12.9613 131.839 13.533 131.607 14.1535C131.363 14.8093 131.241 15.5038 131.245 16.2033V16.2513C131.243 16.9498 131.365 17.6431 131.607 18.2985C131.836 18.9213 132.179 19.4962 132.618 19.9944C133.06 20.4954 133.605 20.8955 134.215 21.1676C134.826 21.4397 135.488 21.5775 136.156 21.5716C137.007 21.5984 137.852 21.4152 138.615 21.0383C139.342 20.6421 140.014 20.1527 140.615 19.5825L142.99 21.9835C142.571 22.4388 142.117 22.8613 141.633 23.2473C141.158 23.6232 140.641 23.9445 140.094 24.2052C139.511 24.4797 138.896 24.6826 138.264 24.8092C137.534 24.9557 136.79 25.0268 136.045 25.0215Z" fill="#595F65"/>
<path d="M147.396 7.75391H160.167V11.075H151.068V14.5174H159.08V17.8384H151.081V21.4021H160.293V24.7232H147.403L147.396 7.75391Z" fill="#595F65"/>
</g>
<defs>
<clipPath id="clip0_14_1074">
<rect width="159.997" height="32" fill="white" transform="translate(0.293213)"/>
</clipPath>
</defs>
</svg>
