<svg width="136" height="28" viewBox="0 0 136 28" fill="none" xmlns="http://www.w3.org/2000/svg">
<g clip-path="url(#clip0_14_1099)">
<path d="M11.4238 19.9257C13.5827 23.4654 17.5422 25.8403 21.9489 25.8403C28.46 25.8403 32.0442 20.2213 32.0442 20.2213L32.5056 21.7181C29.4912 25.6385 24.1061 28.0002 18.0812 28.0002C11.1446 28.0002 5.16228 24.6912 2.40964 19.9192C1.37323 18.1219 0.794678 16.1143 0.794678 13.9999C0.794678 6.26773 8.53329 0 18.081 0C24.827 0 30.2583 2.88951 33.1095 7.07695L21.7904 13.8551L28.2502 3.93587C26.4021 2.77355 24.1347 1.68513 21.7904 1.68513C15.1633 1.68513 9.70507 7.21531 9.70507 13.8421C9.70507 16.0625 10.3356 18.1488 11.4238 19.9257ZM41.7318 19.9217C41.6978 20.1478 41.6809 20.3761 41.681 20.6048C41.681 23.1203 43.7205 25.16 46.2362 25.16C48.752 25.16 50.7912 23.1205 50.7912 20.6048C50.7913 20.3753 50.7743 20.1462 50.7402 19.9192C50.4107 17.7302 48.5198 16.0498 46.236 16.0498C43.9524 16.0498 42.0612 17.7302 41.7318 19.9217ZM58.6341 19.9192L60.898 27.5451H52.9566L51.3951 22.3233C50.3495 25.3322 46.8207 27.5451 42.6288 27.5451C37.6132 27.5451 33.5477 24.3774 33.5477 20.4692C33.5477 20.2863 33.5567 20.1046 33.5741 19.9192C33.9309 16.2715 37.8484 13.3932 42.6288 13.3932C45.3421 13.3932 47.7775 14.3204 49.4415 15.7903L47.2784 8.55804H38.1639C38.1639 8.55804 39.6803 7.64853 46.4052 5.20171C53.13 2.75513 55.2611 8.55804 55.2611 8.55804L58.6341 19.9192ZM84.0248 19.9192V27.5451H75.8534V10.7904C75.8534 10.1983 75.6182 9.63051 75.1996 9.21187C74.7809 8.79323 74.2131 8.55804 73.6211 8.55804C73.1714 8.55793 72.7322 8.69361 72.361 8.94732C71.9898 9.20103 71.7038 9.56093 71.5406 9.9799V27.5451H63.5208V8.55804H58.8436C58.8436 8.55804 65.3502 4.61619 67.6064 4.61619C69.7447 4.61619 71.3273 6.25902 71.5251 8.35175C74.6719 6.65443 77.7924 4.61619 79.9393 4.61619C82.1575 4.61619 83.9631 6.38394 84.0248 8.5879V19.9192ZM96.6127 19.9192L97.7499 23.6779C97.7718 25.2889 99.0956 26.5776 100.721 26.5776C102.382 26.5776 103.728 25.2314 103.728 23.5704C103.728 23.4527 103.721 23.337 103.708 23.2231L102.741 19.9192L99.3465 8.31666C99.1792 6.81318 97.9049 5.64439 96.3569 5.64439C94.8246 5.64439 93.3637 7.07621 93.177 8.55779L96.6127 19.9192ZM109.617 19.9207C108.069 24.6131 103.65 28.0002 98.4387 28.0002C93.2273 28.0002 88.8074 24.6133 87.2594 19.9192C86.8676 18.7295 86.6685 17.4848 86.6699 16.2322C86.6699 9.7328 91.9388 4.4644 98.4387 4.4644C104.938 4.4644 110.207 9.7328 110.207 16.2322C110.207 17.5204 110 18.7606 109.617 19.9207ZM123.147 19.9192V27.5451H115.127V8.55804H110.642C110.642 8.55804 116.956 4.61619 119.212 4.61619C121.351 4.61619 122.933 6.25902 123.132 8.35175C126.278 6.65443 129.398 4.61619 131.545 4.61619C133.764 4.61619 135.57 6.38394 135.631 8.5879V27.5451H127.459V10.7904C127.459 10.1983 127.224 9.63051 126.806 9.21187C126.387 8.79323 125.819 8.55804 125.227 8.55804C124.777 8.55793 124.338 8.69361 123.967 8.94732C123.596 9.20103 123.31 9.56093 123.147 9.9799V19.9192Z" fill="#595F65"/>
</g>
<defs>
<clipPath id="clip0_14_1099">
<rect width="134.875" height="28" fill="white" transform="translate(0.775391)"/>
</clipPath>
</defs>
</svg>
