<svg width="17" height="12" viewBox="0 0 17 12" fill="none" xmlns="http://www.w3.org/2000/svg">
<path d="M2.4891 12H14.6925C16.1526 12 17 11.2351 17 9.77348V2.22652C17 0.76494 16.1451 0 14.5109 0H2.30752C0.847352 0 0 0.75811 0 2.22652V9.77348C0 11.2351 0.854918 12 2.4891 12ZM7.64887 6.23563L2.14108 1.31816C2.247 1.29767 2.36805 1.28401 2.49666 1.28401H14.5033C14.6395 1.28401 14.7606 1.29767 14.8741 1.32499L9.37383 6.23563C9.05607 6.51565 8.79128 6.63859 8.51135 6.63859C8.23142 6.63859 7.96662 6.50882 7.64887 6.23563ZM1.41478 2.32214L5.53049 5.9761L1.41478 9.65054V2.32214ZM11.4922 5.9761L15.5852 2.34263V9.63688L11.4922 5.9761ZM2.49666 10.7092C2.36048 10.7092 2.23186 10.6955 2.11838 10.675L6.45349 6.79567L6.86204 7.16448C7.41433 7.6494 7.94393 7.8543 8.51135 7.8543C9.07121 7.8543 9.60837 7.6494 10.1531 7.16448L10.5692 6.79567L14.8968 10.6682C14.7757 10.6955 14.6471 10.7092 14.5033 10.7092H2.49666Z" fill="black"/>
</svg>
