<svg width="109" height="30" viewBox="0 0 109 30" fill="none" xmlns="http://www.w3.org/2000/svg">
<g clip-path="url(#clip0_14_1057)">
<path d="M107.553 26.0991C107.553 24.4318 106.371 23.2109 104.742 23.2109C103.116 23.2109 101.932 24.4318 101.932 26.0991C101.932 27.7637 103.116 28.9826 104.742 28.9826C106.371 28.9826 107.553 27.7617 107.553 26.0991ZM104.004 26.2472V28.1337H103.394V23.9739H104.909C105.796 23.9739 106.203 24.3614 106.203 25.117C106.203 25.5823 105.889 25.951 105.483 26.0044V26.022C105.835 26.0781 105.964 26.392 106.037 26.9662C106.092 27.3383 106.166 27.9835 106.299 28.135H105.577C105.41 27.7441 105.427 27.1908 105.297 26.7275C105.191 26.3751 105.003 26.2466 104.599 26.2466H104.007V26.2486L104.004 26.2472ZM104.759 25.7095C105.351 25.7095 105.52 25.3943 105.52 25.1163C105.52 24.7876 105.351 24.5278 104.759 24.5278H104.004V25.7108H104.759V25.7095ZM101.262 26.0991C101.262 24.0449 102.893 22.6562 104.739 22.6562C106.591 22.6562 108.22 24.0449 108.22 26.0991C108.22 28.1493 106.592 29.5392 104.739 29.5392C102.893 29.5392 101.262 28.1493 101.262 26.0991Z" fill="#595F65"/>
<path d="M89.2108 28.9392L85.2018 24.4432L81.228 28.9392H72.8664L81.0386 19.7579L72.8664 10.5738H81.4891L85.5387 15.0353L89.4354 10.5738H97.7564L89.6248 19.7193L97.8694 28.9392H89.2108ZM56.8102 28.9392V0.0078125H72.8664V6.45656H63.6113V10.5738H72.8664V16.779H63.6113V22.4743H72.8664V28.9392H56.8102Z" fill="#595F65"/>
<path d="M50.034 0.0078125V11.8481H49.959C48.4594 10.1246 46.5851 9.524 44.4118 9.524C39.9585 9.524 36.6035 12.5536 35.4259 16.5558C34.0826 12.145 30.6188 9.44148 25.4836 9.44148C21.3123 9.44148 18.0196 11.3131 16.2995 14.3636V10.5731H7.6789V6.45723H17.0875V0.00916713H-0.00561523V28.9392H7.6789V16.779H15.3384C15.1025 17.7141 14.9845 18.6751 14.9873 19.6395C14.9873 25.6716 19.597 29.9105 25.4823 29.9105C30.4294 29.9105 33.6923 27.5858 35.4165 23.3536H28.8304C27.9403 24.6272 27.2639 25.0033 25.4829 25.0033C23.4186 25.0033 21.637 23.2014 21.637 21.068H35.0472C35.6289 25.8603 39.3626 29.9924 44.4869 29.9924C46.6974 29.9924 48.7212 28.9054 49.9583 27.069H50.0327V28.9433H56.8081V0.00916713H50.034V0.0078125ZM21.8507 16.8656C22.2789 15.0271 23.704 13.8259 25.4829 13.8259C27.4418 13.8259 28.7946 14.9899 29.1497 16.8656H21.8507ZM45.9222 24.5366C43.4257 24.5366 41.874 22.2105 41.874 19.7808C41.874 17.1835 43.2241 14.6883 45.9222 14.6883C48.7218 14.6883 49.8372 17.1848 49.8372 19.7808C49.8372 22.2416 48.6562 24.5366 45.9222 24.5366Z" fill="#595F65"/>
</g>
<defs>
<clipPath id="clip0_14_1057">
<rect width="108.225" height="30" fill="white" transform="translate(-0.00561523)"/>
</clipPath>
</defs>
</svg>
