<svg width="123" height="40" viewBox="0 0 123 40" fill="none" xmlns="http://www.w3.org/2000/svg">
<g clip-path="url(#clip0_14_1042)">
<path d="M15.3593 0.00341797H16.4491C20.2325 0.0856656 23.9542 1.60725 26.6272 4.30086C25.6402 5.30839 24.6327 6.2748 23.6663 7.28234C22.1653 5.92525 20.3558 4.87659 18.3819 4.50648C15.4621 3.88962 12.3161 4.44479 9.86925 6.11031C7.1962 7.85807 5.38675 10.819 4.99608 13.9855C4.56428 17.1109 5.44844 20.4008 7.48407 22.8271C9.43745 25.1918 12.4189 26.6722 15.5032 26.775C18.3819 26.9395 21.3839 26.0554 23.4812 24.0403C25.1262 22.6215 25.887 20.4625 26.1337 18.3652C22.7205 18.3652 19.3072 18.3858 15.8939 18.3652V14.1295H30.2667C31.0069 18.6736 29.9377 23.7936 26.4833 27.0423C24.1803 29.3453 20.9932 30.7024 17.7445 30.9697C14.5985 31.2781 11.3497 30.6818 8.55329 29.1602C5.20169 27.3713 2.52864 24.3487 1.21268 20.7915C-0.0210332 17.5222 -0.0415951 13.821 1.10987 10.5311C2.15853 7.52908 4.1736 4.87659 6.7644 3.02602C9.25239 1.19601 12.275 0.188475 15.3593 0.00341797Z" fill="#595F65"/>
<path d="M97.8126 1.07275H102.213V30.4352C100.753 30.4352 99.2725 30.4557 97.8126 30.4146C97.8332 20.6477 97.8126 10.8602 97.8126 1.07275Z" fill="#595F65"/>
<path d="M40.0542 11.2508C42.7683 10.7367 45.7087 11.3124 47.9499 12.9368C49.9856 14.3762 51.4043 16.638 51.8361 19.1054C52.3913 21.9635 51.6922 25.0889 49.8416 27.3507C47.8471 29.8799 44.5778 31.2369 41.3907 31.0313C38.4709 30.8668 35.6334 29.4069 33.9062 27.0217C31.9528 24.3898 31.4798 20.7709 32.5491 17.6866C33.6183 14.3762 36.6409 11.8471 40.0542 11.2508ZM40.671 15.1575C39.5607 15.4454 38.5326 16.0828 37.7924 16.9875C35.7979 19.3727 35.9212 23.2589 38.1214 25.4796C39.3756 26.7544 41.2673 27.3507 43.0151 27.0012C44.6395 26.7133 46.0583 25.6235 46.8396 24.1842C48.1967 21.7373 47.806 18.3652 45.7293 16.4529C44.3927 15.2192 42.4394 14.7052 40.671 15.1575Z" fill="#595F65"/>
<path d="M61.8498 11.2508C64.9547 10.6545 68.3474 11.5181 70.6709 13.6977C74.4543 17.0904 74.8655 23.444 71.6373 27.3508C69.6839 29.8182 66.5174 31.1753 63.392 31.0314C60.4105 30.9491 57.4701 29.4687 55.7018 27.0218C53.7073 24.3282 53.2755 20.627 54.4064 17.4811C55.5373 14.2734 58.4982 11.8265 61.8498 11.2508ZM62.4667 15.1576C61.3563 15.4454 60.3283 16.0829 59.588 16.967C57.6141 19.3111 57.6963 23.1356 59.8142 25.3768C61.0685 26.7134 63.0219 27.3714 64.8313 27.0012C66.4351 26.6928 67.8745 25.6236 68.6558 24.1843C69.9924 21.7168 69.6017 18.3447 67.5044 16.4324C66.1678 15.1987 64.2145 14.7052 62.4667 15.1576Z" fill="#595F65"/>
<path d="M80.335 12.4436C82.6996 10.9631 85.8456 10.5519 88.3952 11.8267C89.1972 12.1762 89.8551 12.7725 90.4926 13.3688C90.5131 12.8137 90.4926 12.2379 90.5131 11.6622C91.8908 11.6828 93.2684 11.6622 94.6666 11.6828V29.8184C94.6461 32.5531 93.947 35.4523 91.973 37.4468C89.814 39.647 86.5035 40.3255 83.5221 39.8731C80.335 39.4002 77.5591 37.0767 76.3254 34.1364C77.5591 33.5401 78.8545 33.0672 80.1293 32.512C80.849 34.1981 82.3089 35.6374 84.1389 35.9664C85.9689 36.2954 88.0868 35.843 89.2794 34.3214C90.5542 32.7587 90.5542 30.6203 90.4926 28.708C89.5467 29.6333 88.4569 30.4558 87.141 30.7642C84.2829 31.5661 81.1369 30.5792 78.9368 28.6463C76.7161 26.7135 75.4001 23.732 75.5235 20.7711C75.5852 17.4195 77.4769 14.1913 80.335 12.4436ZM84.5913 15.0755C83.337 15.2811 82.165 15.9802 81.3631 16.9466C79.4302 19.2495 79.4302 22.9301 81.3836 25.1919C82.494 26.5285 84.2829 27.2687 86.0101 27.0836C87.6344 26.9191 89.1355 25.891 89.9374 24.4723C91.2945 22.0665 91.0683 18.7972 89.2383 16.6999C88.1074 15.4045 86.2979 14.767 84.5913 15.0755Z" fill="#595F65"/>
<path d="M107.497 13.4923C109.965 11.1894 113.769 10.4081 116.935 11.6212C119.937 12.7521 121.849 15.6102 122.816 18.5506C118.354 20.4012 113.913 22.2312 109.451 24.0817C110.067 25.2538 111.013 26.323 112.288 26.7548C114.077 27.3922 116.216 27.166 117.717 25.9734C118.313 25.5211 118.786 24.9248 119.238 24.349C120.369 25.1098 121.5 25.8501 122.631 26.6108C121.027 29.0166 118.333 30.7027 115.434 30.97C112.226 31.3607 108.813 30.1269 106.736 27.6184C103.323 23.6705 103.652 17.0496 107.497 13.4923ZM109.697 17.2963C108.998 18.3038 108.71 19.5376 108.731 20.7507C111.712 19.517 114.694 18.2833 117.675 17.029C117.182 15.8775 115.989 15.1784 114.776 14.9934C112.823 14.6438 110.787 15.6925 109.697 17.2963Z" fill="#595F65"/>
</g>
<defs>
<clipPath id="clip0_14_1042">
<rect width="122.549" height="40" fill="white" transform="translate(0.266846)"/>
</clipPath>
</defs>
</svg>
