<svg width="89" height="28" viewBox="0 0 89 28" fill="none" xmlns="http://www.w3.org/2000/svg">
<path d="M67.737 25.0918C67.567 25.7856 67.4183 26.3308 67.2697 26.9114H63.7861V0.0410156H67.8503V9.95369C68.0627 9.68463 68.1689 9.57134 68.2609 9.45098C68.9548 8.49511 69.854 7.87203 71.0152 7.63129C72.8632 7.27019 74.4422 8.08444 75.0015 9.86164C75.3626 10.9662 75.5963 12.1486 75.6246 13.3028C75.6813 16.2695 75.6388 19.2291 75.5326 22.1958C75.4901 23.1021 75.214 24.0297 74.867 24.8793C73.7271 27.6832 70.0027 28.108 68.1547 25.6794C68.0414 25.5307 67.9352 25.3679 67.737 25.0918ZM67.9352 17.6997V22.6136C67.9352 23.4137 68.3601 23.9022 69.1601 24.0863C69.9461 24.2704 70.5833 23.966 70.9019 23.2367C71.0365 22.9322 71.171 22.6136 71.1781 22.295C71.256 19.2928 71.3268 16.2907 71.348 13.2815C71.348 12.7222 71.2135 12.1416 71.0436 11.5964C70.7249 10.6122 69.847 10.3219 68.9831 10.8954C68.3317 11.3344 67.9352 11.9575 67.9352 12.7859V17.6997ZM56.8897 8.01364H61.145V26.9256H57.8243C57.7039 26.2105 57.5836 25.4741 57.442 24.6103C57.2154 24.9431 57.0808 25.1555 56.9392 25.3679C55.8347 26.961 54.2699 27.5062 52.4219 27.2159C50.8429 26.961 49.8942 25.7432 49.6817 23.7465C49.618 23.1517 49.5897 22.5499 49.5897 21.9551C49.5755 17.5298 49.5897 13.0903 49.5897 8.66504V7.99948H53.8946V8.77125C53.8946 13.0479 53.8805 17.3174 53.9088 21.594C53.9088 22.2029 53.9725 22.8331 54.0787 23.442C54.1991 24.0651 54.6522 24.2917 55.2612 24.2492C56.2453 24.1713 56.9251 23.442 56.9251 22.4649V8.84913C56.8897 8.573 56.8897 8.3181 56.8897 8.01364ZM27.5906 7.99948H31.8673V8.79957C31.8673 13.0549 31.8531 17.3032 31.8814 21.5444C31.8814 22.1534 31.9381 22.7835 32.0655 23.3783C32.2284 24.0792 32.639 24.3058 33.34 24.2138C34.31 24.0792 34.8977 23.4066 34.9048 22.4224V8.87746V8.0278H39.1601V26.9256H35.8536C35.7332 26.2246 35.6128 25.5024 35.4571 24.589C35.2446 24.9077 35.1243 25.0918 35.0039 25.2829C33.8994 26.9044 32.3487 27.4991 30.4582 27.2088C28.943 26.9822 28.0155 25.8635 27.7323 24.0297C27.6544 23.4562 27.5977 22.8897 27.5977 22.3162C27.5836 17.721 27.5836 13.1045 27.5836 8.50927L27.5906 7.99948ZM25.3957 18.0962C25.3815 18.7335 25.3391 19.3707 25.3036 20.008C25.1408 21.9197 25.0629 24.6315 23.5194 26.0264C22.5352 26.9044 21.289 27.223 20.0004 27.2655C19.4268 27.2796 18.8463 27.2796 18.2727 27.2017C15.5609 26.7911 14.3006 25.5945 13.8474 22.6136C13.3306 19.1725 13.2881 15.6747 13.9041 12.2336C14.5413 8.67212 16.7363 7.4118 20.1491 7.64545C23.3353 7.87203 24.7585 9.96077 25.1337 12.9346C25.3391 14.641 25.4382 16.3686 25.3957 18.0962ZM21.0624 17.4448C21.0624 16.2341 21.0908 15.0162 21.0483 13.8055C21.02 13.1045 20.9279 12.3965 20.7792 11.7026C20.6093 10.9025 20.0995 10.5201 19.4623 10.5343C18.8392 10.5484 18.4002 10.9308 18.1736 11.6742C18.0957 11.9504 18.0108 12.2336 18.0108 12.5097C18.0108 14.4073 17.9966 16.312 17.9824 18.2095C17.9683 19.9796 17.7417 21.8347 18.3011 23.527C18.471 24.0438 18.91 24.3271 19.4835 24.3271C20.0429 24.3271 20.411 24.0509 20.6164 23.5553C20.7792 23.1729 20.9208 22.7552 20.9208 22.3445C20.9704 20.716 21.0624 19.0804 21.0624 17.4448ZM7.60245 13.8834C7.97771 12.0495 8.33174 10.2582 8.72116 8.45971C9.20972 6.17271 9.75492 3.88572 10.2364 1.59164C10.3568 1.03228 10.5833 0.897754 11.1144 0.911915C12.2543 0.954398 13.4155 0.926076 14.6334 0.926076C14.2369 2.38465 13.8474 3.77243 13.4651 5.13896C12.2543 9.42973 11.0436 13.7347 9.84696 18.0396C9.75492 18.3724 9.71243 18.7335 9.71243 19.0875C9.69827 21.4382 9.71243 23.7819 9.71243 26.1326V26.8973H5.55619C5.54203 26.6849 5.51371 26.4725 5.51371 26.26C5.51371 24.9289 5.4075 23.5907 5.52787 22.2737C5.83233 19.1088 4.8269 16.1987 4.01264 13.2532C2.93641 9.35893 1.84602 5.4505 0.769785 1.55624C0.713141 1.37215 0.691898 1.17389 0.635254 0.947317H4.87646C5.7686 5.24517 6.66782 9.54302 7.60245 13.8834ZM88.9218 18.8185H81.7563C81.8342 20.2558 81.8625 21.6223 82.0112 22.9747C82.1174 23.9164 82.6343 24.32 83.4486 24.3271C84.2982 24.3412 84.7938 23.9164 84.9921 22.9818C85.0558 22.6773 85.0983 22.3729 85.1266 22.0613C85.155 21.7852 85.1691 21.4878 85.1904 21.0913C86.4011 21.155 87.5836 21.2258 88.7518 21.2754C89.4316 23.2933 88.2066 25.8848 86.1462 26.6849C84.5248 27.3221 82.8609 27.3221 81.204 26.8336C79.9791 26.4725 79.0657 25.6936 78.6551 24.497C78.2727 23.3783 77.9116 22.21 77.8337 21.0417C77.6213 18.16 77.5434 15.2499 77.9824 12.3611C78.0603 11.8796 78.1948 11.4193 78.3435 10.952C78.9383 9.02615 80.234 7.84371 82.2378 7.64545C83.3282 7.53925 84.454 7.58173 85.5302 7.76582C87.272 8.07028 88.1996 9.32353 88.6031 10.9662C88.7872 11.738 88.9218 12.531 88.9501 13.3169C88.9572 15.1224 88.9218 16.9138 88.9218 18.8185ZM84.8505 16.3332C84.8505 14.91 84.8647 13.5718 84.8363 12.2265C84.8363 11.9079 84.716 11.5751 84.5956 11.2707C84.3549 10.6759 83.8521 10.513 83.2503 10.513C82.6485 10.513 82.2661 10.8175 82.1174 11.3627C81.6643 12.9983 81.813 14.6693 81.8271 16.3474C82.9104 16.3332 83.8946 16.3332 84.8505 16.3332Z" fill="#595F65"/>
<path d="M42.4455 4.3957H38.2326V0.98291H50.8075V4.37446H46.623V26.8975H42.4526L42.4455 4.3957Z" fill="#595F65"/>
</svg>
