<svg width="150" height="32" viewBox="0 0 150 32" fill="none" xmlns="http://www.w3.org/2000/svg">
<g clip-path="url(#clip0_14_1051)">
<path d="M149.994 14.4769V11.8423H146.723V7.74632L146.612 7.78023L143.539 8.72048L143.479 8.73889V11.8424H138.628V10.1135C138.628 9.30843 138.808 8.69237 139.163 8.28151C139.515 7.87559 140.019 7.66922 140.662 7.66922C141.124 7.66922 141.602 7.77805 142.084 7.99268L142.205 8.04659V5.27191L142.148 5.25105C141.699 5.0896 141.088 5.0083 140.331 5.0083C139.376 5.0083 138.509 5.21597 137.753 5.62755C136.996 6.03971 136.401 6.6281 135.984 7.37618C135.569 8.1234 135.358 8.98642 135.358 9.94145V11.8423H133.08V14.4769H135.358V25.5764H138.628V14.4769H143.479V21.5304C143.479 24.4354 144.849 25.9075 147.551 25.9075C147.995 25.9075 148.463 25.8555 148.94 25.7536C149.426 25.649 149.757 25.5445 149.951 25.4329L149.994 25.4074V22.7484L149.861 22.8363C149.684 22.9546 149.463 23.0513 149.204 23.1231C148.943 23.1963 148.726 23.233 148.558 23.233C147.925 23.233 147.456 23.0624 147.166 22.7258C146.872 22.3861 146.723 21.792 146.723 20.961V14.4769H149.994ZM125.776 23.2334C124.589 23.2334 123.653 22.8398 122.994 22.0645C122.33 21.2852 121.994 20.1743 121.994 18.7627C121.994 17.3064 122.33 16.1666 122.994 15.3736C123.654 14.5858 124.581 14.1859 125.75 14.1859C126.884 14.1859 127.786 14.5678 128.433 15.3215C129.083 16.0792 129.413 17.2099 129.413 18.6832C129.413 20.1746 129.102 21.3202 128.491 22.0865C127.884 22.8471 126.97 23.2334 125.776 23.2334ZM125.922 11.5114C123.657 11.5114 121.858 12.175 120.576 13.4838C119.294 14.7927 118.644 16.6041 118.644 18.8681C118.644 21.0184 119.278 22.7481 120.53 24.0082C121.781 25.2687 123.484 25.9072 125.59 25.9072C127.786 25.9072 129.549 25.2344 130.831 23.9075C132.112 22.582 132.762 20.7877 132.762 18.5766C132.762 16.3927 132.152 14.6501 130.95 13.3984C129.747 12.1462 128.055 11.5114 125.922 11.5114ZM113.371 11.5114C111.83 11.5114 110.556 11.9054 109.583 12.6824C108.603 13.4639 108.107 14.489 108.107 15.7294C108.107 16.3741 108.214 16.9468 108.425 17.4326C108.637 17.92 108.966 18.3491 109.402 18.7092C109.835 19.0665 110.504 19.4407 111.39 19.8214C112.135 20.1279 112.69 20.3872 113.043 20.5915C113.388 20.7918 113.633 20.9931 113.771 21.1892C113.906 21.381 113.974 21.6436 113.974 21.9677C113.974 22.8904 113.283 23.3394 111.861 23.3394C111.334 23.3394 110.732 23.2292 110.073 23.0121C109.419 22.7983 108.801 22.4852 108.242 22.0838L108.106 21.9864V25.1351L108.156 25.1583C108.619 25.3719 109.202 25.552 109.89 25.6938C110.576 25.8356 111.2 25.9078 111.742 25.9078C113.413 25.9078 114.76 25.5119 115.742 24.7303C116.73 23.9434 117.231 22.8942 117.231 21.6109C117.231 20.6851 116.962 19.8912 116.43 19.251C115.902 18.6159 114.986 18.0329 113.708 17.5176C112.689 17.1089 112.037 16.7696 111.768 16.5092C111.509 16.2576 111.377 15.9018 111.377 15.4512C111.377 15.0518 111.539 14.7319 111.873 14.4727C112.21 14.2123 112.678 14.0799 113.265 14.0799C113.81 14.0799 114.367 14.1659 114.922 14.3346C115.476 14.5033 115.963 14.7292 116.369 15.0056L116.502 15.0969V12.1101L116.451 12.088C116.076 11.9273 115.582 11.7898 114.982 11.6782C114.384 11.5673 113.842 11.5114 113.371 11.5114ZM99.5806 23.2334C98.3939 23.2334 97.4577 22.8398 96.7983 22.0645C96.1345 21.2852 95.7989 20.1746 95.7989 18.7627C95.7989 17.3064 96.135 16.1666 96.799 15.3736C97.4584 14.5858 98.3852 14.1859 99.5544 14.1859C100.688 14.1859 101.591 14.5678 102.237 15.3215C102.887 16.0792 103.217 17.2099 103.217 18.6832C103.217 20.1746 102.907 21.3202 102.295 22.0865C101.688 22.8471 100.775 23.2334 99.5806 23.2334ZM99.7264 11.5114C97.4612 11.5114 95.6622 12.175 94.3804 13.4838C93.0987 14.7927 92.4484 16.6041 92.4484 18.8681C92.4484 21.0193 93.0832 22.7481 94.3345 24.0082C95.5857 25.2687 97.2884 25.9072 99.3951 25.9072C101.59 25.9072 103.354 25.2344 104.636 23.9075C105.917 22.582 106.567 20.7877 106.567 18.5766C106.567 16.3927 105.957 14.6501 104.755 13.3984C103.551 12.1462 101.859 11.5114 99.7264 11.5114ZM87.484 14.2207V11.8423H84.2534V25.5761H87.484V18.5507C87.484 17.3561 87.7549 16.3747 88.2893 15.6334C88.817 14.901 89.5201 14.5298 90.3787 14.5298C90.6697 14.5298 90.9963 14.5778 91.3501 14.6727C91.7002 14.7671 91.9538 14.8695 92.1034 14.9774L92.2392 15.0758V11.8188L92.1869 11.7963C91.886 11.6685 91.4604 11.604 90.9218 11.604C90.11 11.604 89.3835 11.8649 88.7612 12.3785C88.215 12.8299 87.8202 13.4489 87.5183 14.2207H87.484ZM78.4679 11.5114C76.9858 11.5114 75.6639 11.8292 74.5394 12.4557C73.4126 13.0837 72.5412 13.9801 71.9483 15.1201C71.3581 16.2573 71.0584 17.5857 71.0584 19.0671C71.0584 20.3647 71.3489 21.5555 71.9233 22.605C72.4979 23.6563 73.3112 24.4787 74.3407 25.0492C75.3688 25.6188 76.557 25.9077 77.8726 25.9077C79.4079 25.9077 80.7187 25.6007 81.7697 24.9954L81.8122 24.971V22.0113L81.6764 22.1104C81.2003 22.4572 80.6683 22.734 80.0959 22.9334C79.5249 23.1327 79.0043 23.2334 78.5478 23.2334C77.2802 23.2334 76.2625 22.8368 75.5239 22.0548C74.7836 21.2718 74.4082 20.1722 74.4082 18.7887C74.4082 17.3964 74.7997 16.2686 75.5711 15.4365C76.3402 14.6068 77.3597 14.1859 78.6011 14.1859C79.663 14.1859 80.6977 14.5455 81.6767 15.2556L81.8122 15.354V12.2354L81.7684 12.2108C81.4 12.0046 80.8976 11.8343 80.2738 11.7052C79.6527 11.5763 79.0452 11.5114 78.4679 11.5114ZM68.8334 11.8424H65.6028V25.5761H68.8334V11.8424ZM67.2511 5.99174C66.7194 5.99174 66.2557 6.17275 65.8747 6.53143C65.4921 6.89113 65.298 7.34401 65.298 7.87848C65.298 8.40455 65.4897 8.84917 65.8687 9.19931C66.2452 9.54842 66.7104 9.72537 67.2513 9.72537C67.792 9.72537 68.2589 9.54842 68.6399 9.19989C69.0234 8.84917 69.2179 8.4047 69.2179 7.87848C69.2179 7.36271 69.0286 6.91446 68.6557 6.54593C68.2831 6.17811 67.8104 5.99174 67.2511 5.99174ZM59.1905 10.8291V25.5761H62.4875V6.41216H57.9244L52.1243 20.6466L46.4957 6.41216H41.7467V25.5759H44.845V10.8277H44.9514L50.8951 25.5761H53.2332L59.0842 10.8291H59.1905Z" fill="#595F65"/>
<path d="M15.3793 15.206H0.181641V0.00830078H15.3793V15.206Z" fill="#595F65"/>
<path d="M32.1593 15.206H16.9619V0.00830078H32.1593V15.206Z" fill="#595F65"/>
<path d="M15.3789 31.992H0.181641V16.7944H15.3789V31.992Z" fill="#595F65"/>
<path d="M32.1593 31.992H16.9619V16.7944H32.1593V31.992Z" fill="#595F65"/>
</g>
<defs>
<clipPath id="clip0_14_1051">
<rect width="149.813" height="32" fill="white" transform="translate(0.181641)"/>
</clipPath>
</defs>
</svg>
