<svg width="91" height="48" viewBox="0 0 91 48" fill="none" xmlns="http://www.w3.org/2000/svg">
<g clip-path="url(#clip0_14_1034)">
<path d="M48.625 2.17136C48.3329 2.2164 48.0522 3.29177 47.4877 3.85198C47.075 4.25629 46.5597 4.23099 46.286 4.73084C46.1821 4.91757 46.2157 5.23633 46.0978 5.54238C45.8676 6.15449 45.0561 6.20921 45.0561 6.87614C45.0533 7.59638 45.7328 7.73393 46.3211 8.24496C46.7802 8.65633 46.8251 8.93991 47.381 9.13924C47.8557 9.30078 48.5618 8.77282 49.1978 8.96238C49.7201 9.11828 50.2198 9.23054 50.3379 9.76687C50.4417 10.2611 50.3308 11.0276 49.6976 10.9392C49.4842 10.9153 48.559 10.6036 47.4218 10.7243C46.0501 10.8802 44.4846 11.328 44.3317 12.857C44.2474 13.712 45.3045 14.7201 46.3253 14.5151C47.0314 14.376 46.6974 13.5436 47.082 13.1392C47.586 12.6212 50.4417 14.9475 53.0966 14.9475C54.2142 14.9475 55.0453 14.6653 55.8709 13.8005C55.948 13.7345 56.0421 13.5927 56.1614 13.5842C56.2738 13.5927 56.4703 13.7035 56.5349 13.7513C58.6732 15.4697 60.2891 18.9165 68.1471 18.9572C69.252 18.9628 70.5113 19.4907 71.539 20.4286C72.4558 21.2766 72.9922 22.5948 73.513 23.9328C74.2992 25.9406 75.7089 27.8935 77.8456 30.0668C77.9622 30.1833 79.7213 31.5508 79.8617 31.6533C79.8842 31.6673 80.0134 31.9762 79.9685 32.1488C79.9165 33.4517 79.727 37.241 82.5517 37.4123C83.2425 37.4473 83.0613 36.9616 83.0613 36.6274C83.06 35.9676 82.9392 35.3119 83.2874 34.6366C83.7633 33.7073 82.278 33.279 82.3215 31.2699C82.3524 29.7719 81.0944 30.0274 80.4556 28.886C80.0877 28.2247 79.7606 27.8738 79.7845 27.065C79.9277 22.5135 78.8158 19.523 78.2612 18.7888C77.8289 18.2342 77.4708 18.0138 77.8667 17.7568C80.224 16.1998 80.7589 14.7509 80.7589 14.7509C82.0125 11.804 83.14 9.11254 84.6942 7.92772C85.0073 7.68334 85.8104 7.08394 86.3031 6.84802C87.7534 6.16426 88.5172 5.75018 88.9384 5.34012C89.6052 4.69013 90.1317 3.33531 89.4929 2.51399C88.6983 1.50029 87.3238 2.30478 86.7173 2.66414C82.3833 5.23633 81.7445 9.77382 80.2435 12.3797C79.046 14.4617 77.0988 15.9906 75.3579 16.1156C74.0521 16.2124 72.6454 15.9485 71.2442 15.3336C67.8368 13.8398 65.9723 11.9108 65.5329 11.5696C64.6175 10.8634 57.5106 3.88705 51.7529 3.60206C51.7529 3.60206 51.0384 2.17146 50.8587 2.14757C50.4374 2.09416 50.0065 3.00255 49.6976 3.10796C49.407 3.2047 48.9184 2.12359 48.625 2.17136ZM23.2778 43.8088C22.7359 43.7961 22.2754 43.351 22.2754 42.8007L22.2768 24.8412H16.3577V44.6384C16.3577 45.6086 17.1439 46.4005 18.1084 46.4005H28.4543C29.4257 46.4005 30.2022 45.6086 30.2022 44.6384V24.8412H24.2887L24.2831 42.8007C24.2831 43.351 23.8225 43.7961 23.2778 43.8088ZM43.0962 24.8412H34.1375C33.0775 24.8412 32.2141 25.7032 32.2141 26.7745V46.4004H38.1386V28.3975C38.1429 27.8458 38.5893 27.4091 39.1397 27.4091C39.6929 27.4091 40.1365 27.8359 40.1491 28.3821V46.4005H46.05V28.3819C46.057 27.8358 46.5006 27.409 47.0524 27.409C47.6 27.409 48.0521 27.8457 48.0563 28.3974V46.4005H53.981V26.7745C53.981 25.7032 53.1161 24.8412 52.0562 24.8412H43.0962ZM8.43651 28.4353C8.44074 27.8358 7.95219 27.409 7.4341 27.409H6.42887V38.3136H7.4341C7.95642 38.3136 8.44085 37.898 8.43651 37.3014V28.4353ZM12.4084 40.9825H6.42887V46.4005H0.512573V24.8412H12.4463C13.5147 24.8412 14.3486 25.7089 14.3486 26.7829V39.0409C14.3486 40.1164 13.4824 40.9825 12.4084 40.9825ZM74.2838 41.5792C73.0947 41.5792 72.0964 42.6069 72.0964 43.8523C72.0964 45.1018 73.0947 46.121 74.3217 46.121C75.539 46.121 76.5245 45.1018 76.5245 43.8523C76.5245 42.6041 75.539 41.5792 74.3216 41.5792H74.2838ZM76.9485 43.8452C76.9485 45.3095 75.7748 46.5002 74.3217 46.5002C72.8531 46.5002 71.6738 45.3181 71.6738 43.8452C71.6738 42.4005 72.8531 41.1932 74.2782 41.1932C75.7748 41.1932 76.9485 42.3642 76.9485 43.8452Z" fill="#595F65"/>
<path d="M74.0479 43.6764C74.4593 43.6764 74.6755 43.5304 74.6755 43.2384C74.6755 42.9786 74.4663 42.8453 74.0661 42.8453H73.9482V43.6764H74.0479ZM75.5629 45.3808H74.8566L73.9482 44.172V45.3808H73.3712V42.3244H73.9778C74.8019 42.3244 75.2399 42.6361 75.2399 43.2314C75.2399 43.6286 74.9816 43.9811 74.6207 44.0863L74.5786 44.1018L75.5629 45.3808ZM63.9142 38.3175V28.3901C63.9001 27.8411 63.4579 27.42 62.9061 27.42C62.3599 27.42 61.9078 27.8579 61.9037 28.4055V38.3175H63.9142ZM63.9142 46.4001V40.9878H61.9037V46.4001H55.9902V26.7741C55.9902 25.7028 56.8536 24.8408 57.9136 24.8408H67.9042C68.967 24.8408 69.8305 25.7028 69.8305 26.7741V46.4L63.9142 46.4001Z" fill="#595F65"/>
</g>
<defs>
<clipPath id="clip0_14_1034">
<rect width="89.6191" height="48" fill="white" transform="translate(0.512573)"/>
</clipPath>
</defs>
</svg>
