<svg width="114" height="34" viewBox="0 0 114 34" fill="none" xmlns="http://www.w3.org/2000/svg">
<g clip-path="url(#clip0_14_1089)">
<path d="M40.613 13.3388C40.613 9.96306 43.0743 7.60589 47.5471 7.60589C50.2763 7.60589 52.5095 8.47727 53.7194 9.33088C53.8926 9.45276 54.2015 9.74846 54.0163 10.2984C53.7789 10.8907 53.3436 11.7814 53.0312 12.3601C52.8494 12.6972 52.3852 12.6528 52.1473 12.5323C51.2855 12.0956 49.8719 11.3568 48.5734 11.2206C48.2446 11.1848 47.9138 11.1705 47.5831 11.1777C46.4395 11.2033 45.4841 11.6003 45.1476 12.4729C45.0817 12.6379 45.0449 12.8132 45.0389 12.9909C45.0075 14.1407 46.6076 14.5564 48.5461 14.8895C52.1498 15.5068 54.8763 16.5634 54.8763 20.2727C54.8763 23.4226 52.3729 26.2693 47.4678 26.1821C44.2343 26.1167 41.9402 25.0241 40.711 23.9639C40.6691 23.9279 40.2011 23.4513 40.4519 22.8781C40.739 22.1403 41.2235 21.2946 41.6038 20.8456C41.8152 20.5572 42.3731 20.5114 42.6631 20.6911C43.6764 21.3208 45.344 22.3305 47.2662 22.3975C47.418 22.4027 47.5683 22.4036 47.7159 22.3997C49.445 22.3578 50.4911 21.7022 50.4693 20.5977C50.4506 19.6248 49.0796 19.0564 46.8965 18.6449C43.4146 17.9891 40.6135 16.8414 40.6135 13.3388M72.2453 18.1454C69.7899 18.1775 67.5387 18.8486 67.4738 20.7675C67.4731 22.2902 68.7083 23.0381 70.4419 22.9401C72.105 22.7799 73.3732 22.0587 73.932 21.1017C74.1386 20.747 74.1701 19.4197 74.1575 18.8525C74.1543 18.7317 73.9156 18.5032 73.811 18.4593C73.2893 18.2394 72.9032 18.1716 72.2451 18.1449M64.0753 10.4134C65.2235 9.38601 67.5 7.78678 71.1281 7.87107C75.916 7.97062 78.4454 10.2152 78.681 15.5848C78.778 17.7991 78.6172 23.9755 78.5789 25.5144C78.5732 25.7351 78.4985 25.8877 78.201 25.8934C77.4125 25.9251 75.5909 25.9126 74.7539 25.9016C74.3316 25.8811 74.2826 25.6716 74.2771 25.4522C74.2735 25.3087 74.2612 24.8831 74.2523 24.5361C74.2475 24.3521 74.0746 24.3573 74.0304 24.4045C72.9073 25.6037 71.068 26.1828 69.112 26.1828C66.139 26.1828 63.1752 24.4339 63.1843 20.9704C63.1934 17.4234 65.7085 15.6738 68.4714 15.2613C70.2405 14.9979 72.2348 15.2321 73.745 15.8322C73.8416 15.8709 74.0388 15.8148 74.0404 15.6779C74.0466 15.226 74.0247 14.3646 73.9379 13.9564C73.7163 12.9162 72.8485 12.0792 71.0256 11.8537C70.6502 11.8074 70.2722 11.7922 69.8938 11.8222C68.4447 11.9361 66.7008 13.0661 65.9787 13.4891C65.8087 13.5884 65.5426 13.5158 65.4565 13.4048C65.0351 12.8604 63.9757 11.268 63.8924 11.0135C63.809 10.7597 63.9265 10.546 64.0748 10.4125L64.0753 10.4134ZM80.2597 17.0163C80.2312 12.0694 83.678 7.89613 89.2749 7.85945C92.7672 7.83667 95.3043 9.41996 95.7518 10.1667C95.8427 10.3421 95.796 10.4886 95.7331 10.6652C95.4374 11.2894 94.6906 12.4954 94.1585 13.1788C93.9318 13.47 93.6857 13.2205 93.3998 13.0303C92.6064 12.5018 91.0987 11.8555 89.615 11.8555C86.9232 11.8559 84.9187 13.7017 84.941 17.0974C84.9619 20.356 86.8819 22.1469 89.6243 22.2118C91.0579 22.2478 92.4469 21.4238 93.1941 20.7488C93.4288 20.544 93.6716 20.6465 93.9398 20.8561C94.466 21.3939 95.2207 22.2243 95.6392 22.7959C95.9133 23.1135 95.7083 23.4242 95.6096 23.549C94.4742 24.9858 92.2813 26.1951 89.3792 26.2115C83.3026 26.2541 80.2882 21.9815 80.2601 17.017M109.266 25.9884C109.551 25.967 112.595 25.5469 113.529 25.333C113.761 25.2802 113.844 25.0852 113.714 24.892C113.193 24.1097 111.821 21.8881 110.384 19.8993C109.063 18.0706 107.67 16.4623 107.22 15.8435C107.11 15.6932 107.116 15.5451 107.236 15.4285C108.093 14.5901 111.676 11.0761 113.024 9.62499C113.546 9.06047 113.232 8.81762 112.789 8.68572C111.933 8.43057 110.549 8.11255 109.762 7.94647C109.43 7.87631 109.03 7.90091 108.74 8.19934C107.392 9.45572 103.281 13.5825 102.053 14.8161C101.832 15.0387 101.704 14.9893 101.702 14.6712C101.692 12.2929 101.645 2.11018 101.56 0.435307C101.555 0.213874 101.288 0.0457491 101.138 0.0377757C100.366 -0.00254688 98.4165 -0.0141654 97.6481 0.0309412C97.4328 0.055317 97.2271 0.274699 97.2084 0.460138C97.0312 3.13829 97.2836 22.7979 97.3888 25.5481C97.3963 25.747 97.5444 25.9012 97.7333 25.9124C98.4999 25.9568 100.396 25.9538 101.281 25.9372C101.717 25.9372 101.77 25.631 101.77 25.631L101.836 20.3556C101.836 20.3556 101.881 20.1209 101.953 20.0435C102.265 19.7075 103.129 18.7821 103.497 18.4244C103.585 18.3385 103.725 18.3447 103.815 18.4661C104.252 19.0561 105.5 20.9743 106.656 22.6875C107.718 24.2612 108.71 25.6579 108.779 25.7565C108.939 25.9843 109.126 25.9935 109.266 25.9891V25.9884H109.266ZM57.5 25.9702C57.7677 25.9791 59.7986 25.9768 60.6984 25.9757C61.0014 25.9816 61.1589 25.7522 61.1689 25.5497C61.36 21.6937 61.2782 3.33534 61.1575 0.436445C61.1475 0.185853 61.0402 0.0917672 60.8691 0.0689861C60.0968 -0.0344402 57.9021 -0.0102924 57.1986 0.173779C57.061 0.209545 56.9799 0.314111 56.9756 0.448519C56.8033 7.92073 56.9195 25.1478 56.956 25.474C56.9922 25.8007 57.163 25.9588 57.5004 25.9702H57.5Z" fill="#595F65"/>
<path d="M3.1458 18.3033C1.89421 18.3128 0.833972 17.567 0.443048 16.4029C0.428546 16.3589 0.415026 16.3146 0.402498 16.2701C-0.0235094 14.7793 0.802534 13.2197 2.28308 12.7203L26.0301 4.76446C26.3121 4.68288 26.6039 4.64027 26.8974 4.63779C28.1823 4.62777 29.2717 5.39003 29.6721 6.57875L29.7077 6.69356C30.1519 8.24632 29.0482 9.63233 27.7257 10.0766C27.7248 10.0772 27.4842 10.1586 4.11035 18.139C3.79967 18.2449 3.47403 18.3004 3.1458 18.3033Z" fill="#595F65"/>
<path d="M7.104 29.9821C5.84261 29.9912 4.77873 29.2558 4.39236 28.1083C4.37769 28.0647 4.36402 28.0207 4.35135 27.9764C3.91942 26.4678 4.74456 24.8918 6.23011 24.3918L29.9781 16.363C30.2849 16.2605 30.6018 16.2081 30.9205 16.2052C32.1853 16.1956 33.2966 16.9683 33.6887 18.1288L33.7251 18.2495C33.9545 19.0517 33.819 19.9531 33.3629 20.6646C33.023 21.1935 31.9509 21.6592 31.9509 21.6592L8.11275 29.8101C7.78763 29.9201 7.44721 29.9783 7.104 29.9825V29.9821Z" fill="#595F65"/>
<path d="M26.8726 30.0327C26.2571 30.0386 25.6554 29.8495 25.1539 29.4926C24.6524 29.1356 24.2768 28.629 24.0808 28.0455L16.1552 4.50348L16.1156 4.37135C15.6862 2.87007 16.512 1.3041 17.9921 0.805189C18.2882 0.705636 18.5944 0.653695 18.9026 0.650961C19.3605 0.647544 19.8036 0.750742 20.221 0.956911C20.5648 1.12692 20.8715 1.36323 21.1237 1.65223C21.3758 1.94123 21.5683 2.27722 21.6901 2.64089L29.615 26.1809L29.638 26.2565C30.0832 27.8152 29.2592 29.3821 27.7791 29.881C27.4867 29.9786 27.1808 30.0298 26.8726 30.0327Z" fill="#595F65"/>
<path d="M15.0918 33.9982C14.4759 34.0041 13.874 33.8149 13.3722 33.4576C12.8705 33.1003 12.4948 32.5934 12.2988 32.0095L4.37534 8.46835C4.25256 8.10517 4.20263 7.72134 4.22839 7.33883C4.25415 6.95633 4.35511 6.58266 4.52547 6.23923C4.69584 5.89579 4.93227 5.58933 5.22123 5.33738C5.51019 5.08544 5.846 4.89296 6.20944 4.77097C6.50224 4.6731 6.80857 4.62175 7.11727 4.61879C7.73292 4.61272 8.33468 4.80172 8.83629 5.1587C9.33791 5.51569 9.71361 6.02233 9.90956 6.60599L17.8333 30.148C17.9561 30.5114 18.006 30.8954 17.9802 31.2781C17.9543 31.6607 17.8532 32.0346 17.6827 32.3781C17.5121 32.7216 17.2754 33.0281 16.9862 33.28C16.6969 33.5319 16.3608 33.7243 15.9971 33.8461C15.7049 33.944 15.3991 33.9953 15.0909 33.998L15.0918 33.9982Z" fill="#595F65"/>
<path d="M22.9654 24.731L28.4916 22.8415L26.6851 17.4766L21.1525 19.3462L22.9654 24.731Z" fill="#595F65"/>
<path d="M11.2028 28.7532L16.7285 26.864L14.9083 21.458L9.37708 23.3283L11.2028 28.7532Z" fill="#595F65"/>
<path d="M19.0311 13.0452L24.5578 11.1583L22.7724 5.85596L17.2355 7.71102L19.0311 13.0452Z" fill="#595F65"/>
<path d="M7.26719 17.0616L12.7939 15.1747L10.9867 9.80469L5.44971 11.6595L7.26719 17.0616Z" fill="#595F65"/>
</g>
<defs>
<clipPath id="clip0_14_1089">
<rect width="113.485" height="34" fill="white" transform="translate(0.290649)"/>
</clipPath>
</defs>
</svg>
