<svg width="261" height="32" viewBox="0 0 261 32" fill="none" xmlns="http://www.w3.org/2000/svg">
<g clip-path="url(#clip0_14_1102)">
<path d="M61.2784 11.8143H39.3713L38.5888 12.4403V31.9219H44.6133V24.5673L45.1609 24.0198H61.2782C65.3466 24.0198 67.2244 22.9245 67.2244 20.1079V15.6482C67.2246 12.9097 65.3468 11.8143 61.2784 11.8143ZM61.2784 19.0123C61.2784 20.3423 60.4177 20.577 58.4618 20.577H45.2393L44.6133 20.0294V15.8828L45.1609 15.3351H58.4615C60.3394 15.3351 61.2781 15.5698 61.2781 16.8998L61.2784 19.0123ZM78.3346 15.4915L83.5766 23.1589L83.2637 23.8631H71.6842L68.7111 27.5404H85.9237L87.1756 28.2445L89.8358 31.9218H96.7991L81.5425 11.5796M147.42 28.0098V22.5332L148.046 21.9854H159.704V18.5428H141.239V31.9218H168.467V28.4792H148.124M141.239 11.8143H168.701V15.5698H141.239V11.8143ZM110.648 15.4133H132.789C132.476 12.5967 130.677 11.8143 126.295 11.8143H110.413C105.406 11.8143 103.841 12.7532 103.841 16.5869V27.2274C103.841 30.983 105.406 32.0001 110.413 32.0001H126.295C130.755 32.0001 132.476 31.1394 132.633 28.2445H110.648L110.022 27.6185V15.8828M23.7234 19.6383H7.68434L7.21488 19.0907V15.6481L7.68434 15.257H29.3566L29.6696 14.5528C28.9654 12.6749 27.0094 11.7362 23.4887 11.7362H8.38843C3.38116 11.7362 1.81635 12.675 1.81635 16.5086V18.7777C1.81635 22.5333 3.38116 23.5504 8.38843 23.5504H24.4276L24.897 24.0197V27.6186L24.5058 28.1664H1.34689C1.34689 28.1664 0.799316 28.4793 0.799316 28.5576C1.19047 31.2177 2.99001 31.9218 7.29309 31.9218H23.7235C28.7308 31.9218 30.3739 30.983 30.3739 27.1493V24.4108C30.3738 20.6554 28.7308 19.6383 23.7234 19.6383ZM185.992 11.7361H176.916L176.447 12.6749L186.461 20.0295C188.339 18.9341 190.452 17.8388 192.642 16.7434M194.129 25.5063L202.97 31.9218H212.046L212.437 31.0611L199.293 21.4377C197.572 22.7677 195.772 24.0979 194.129 25.5063Z" fill="#595F65"/>
<path d="M184.662 31.9217H176.447L175.742 30.8262C181.298 25.4278 206.178 2.42543 260.241 0C260.241 0 214.941 1.5647 184.662 31.9217Z" fill="#595F65"/>
</g>
<defs>
<clipPath id="clip0_14_1102">
<rect width="259.74" height="32" fill="white" transform="translate(0.650146)"/>
</clipPath>
</defs>
</svg>
