<svg width="135" height="40" viewBox="0 0 135 40" fill="none" xmlns="http://www.w3.org/2000/svg">
<g clip-path="url(#clip0_14_1049)">
<path d="M20.8157 0C9.77028 0 0.815796 8.95424 0.815796 19.9996C0.815796 31.0462 9.77028 40 20.8157 40C31.8616 40 40.8156 31.0462 40.8156 19.9996C40.8156 8.95495 31.862 0.000954567 20.8154 0.000954567L20.8157 0ZM29.9875 28.8452C29.6283 29.4344 28.8607 29.619 28.2734 29.26C23.577 26.3896 17.6656 25.7412 10.7038 27.3315C10.033 27.4854 9.36427 27.0648 9.21143 26.3941C9.05786 25.7233 9.47651 25.0546 10.149 24.9018C17.7675 23.16 24.3025 23.9097 29.5741 27.1309C30.1616 27.4916 30.3479 28.2582 29.9872 28.8457L29.9875 28.8452ZM32.4354 23.4003C31.9831 24.1342 31.0235 24.3644 30.2906 23.9137C24.9158 20.6098 16.7201 19.6529 10.3614 21.5831C9.5367 21.8321 8.66571 21.3674 8.41542 20.5442C8.16704 19.7195 8.63204 18.8502 9.45527 18.5994C16.7186 16.3955 25.7481 17.4631 31.9217 21.2568C32.6549 21.7082 32.8866 22.6683 32.4352 23.4005L32.4354 23.4003ZM32.6456 17.7296C26.1988 13.901 15.5649 13.549 9.41059 15.4168C8.42234 15.7165 7.37724 15.1587 7.07776 14.1704C6.77827 13.1817 7.33569 12.1373 8.32466 11.8368C15.3893 9.69221 27.1335 10.1066 34.5548 14.5122C35.4437 15.0397 35.7353 16.1877 35.2084 17.0755C34.683 17.9644 33.5319 18.2574 32.6458 17.7296H32.6456ZM55.2289 18.4633C51.7757 17.6398 51.1609 17.0619 51.1609 15.8474C51.1609 14.7001 52.2411 13.928 53.8475 13.928C55.4046 13.928 56.9486 14.5143 58.5674 15.7213C58.6163 15.7579 58.6777 15.7724 58.7381 15.7629C58.7986 15.7538 58.8521 15.7206 58.8874 15.6707L60.5735 13.2939C60.6428 13.196 60.6239 13.0611 60.5305 12.9863C58.6039 11.4404 56.4344 10.6888 53.8986 10.6888C50.1701 10.6888 47.5657 12.9264 47.5657 16.1278C47.5657 19.5609 49.8123 20.7765 53.6947 21.7149C56.999 22.476 57.5567 23.1137 57.5567 24.2536C57.5567 25.5167 56.429 26.302 54.6141 26.302C52.5985 26.302 50.9544 25.623 49.1152 24.0303C49.0696 23.9909 49.007 23.973 48.9492 23.9763C48.8883 23.9813 48.8327 24.0095 48.794 24.0561L46.9034 26.306C46.8242 26.3994 46.8342 26.5389 46.9259 26.6196C49.0658 28.53 51.6976 29.539 54.5377 29.539C58.5555 29.539 61.1517 27.3437 61.1517 23.946C61.1589 21.0777 59.4418 19.4895 55.236 18.4664L55.2289 18.4633ZM70.2414 15.0576C68.4999 15.0576 67.0714 15.7435 65.8936 17.149V15.567C65.8936 15.4421 65.7923 15.3404 65.6676 15.3404H62.5756C62.4507 15.3404 62.3496 15.4421 62.3496 15.567V33.145C62.3496 33.2699 62.4507 33.3716 62.5756 33.3716H65.6676C65.7923 33.3716 65.8936 33.2699 65.8936 33.145V27.5964C67.0717 28.9185 68.5003 29.5646 70.2414 29.5646C73.4772 29.5646 76.7529 27.0736 76.7529 22.3119C76.7577 17.5491 73.481 15.0574 70.2449 15.0574L70.2414 15.0576ZM73.1574 22.3119C73.1574 24.7367 71.6638 26.4288 69.5251 26.4288C67.4108 26.4288 65.8159 24.6598 65.8159 22.3119C65.8159 19.9643 67.4108 18.1951 69.5251 18.1951C71.6292 18.1948 73.1577 19.9258 73.1577 22.3117L73.1574 22.3119ZM85.1488 15.0576C80.9815 15.0576 77.7168 18.2665 77.7168 22.3638C77.7168 26.4164 80.9591 29.5915 85.0977 29.5915C89.2797 29.5915 92.5545 26.3934 92.5545 22.3119C92.5545 18.2445 89.3017 15.0581 85.1485 15.0581L85.1488 15.0576ZM85.1488 26.4529C82.9322 26.4529 81.2612 24.672 81.2612 22.3107C81.2612 19.9394 82.8745 18.2187 85.0977 18.2187C87.3285 18.2187 89.0108 19.9996 89.0108 22.3626C89.0108 24.7334 87.3868 26.4529 85.149 26.4529H85.1488ZM101.453 15.3404H98.0508V11.8617C98.0508 11.737 97.95 11.6353 97.8251 11.6353H94.7335C94.6084 11.6353 94.5069 11.737 94.5069 11.8617V15.3404H93.0202C92.8958 15.3404 92.795 15.4421 92.795 15.5671V18.2245C92.795 18.3491 92.8958 18.4511 93.0202 18.4511H94.5069V25.3271C94.5069 28.1058 95.8899 29.5146 98.6175 29.5146C99.7266 29.5146 100.647 29.2856 101.514 28.7939C101.584 28.7545 101.628 28.6785 101.628 28.5978V26.0672C101.628 25.9891 101.588 25.9153 101.521 25.8745C101.453 25.8322 101.37 25.8301 101.3 25.8642C100.705 26.1639 100.129 26.3022 99.4854 26.3022C98.4933 26.3022 98.0508 25.8518 98.0508 24.8423V18.4523H101.453C101.578 18.4523 101.679 18.3506 101.679 18.2257V15.5685C101.684 15.4436 101.583 15.3419 101.457 15.3419L101.453 15.3404ZM113.309 15.354V14.9268C113.309 13.6698 113.791 13.1093 114.871 13.1093C115.516 13.1093 116.034 13.2373 116.614 13.4308C116.685 13.4532 116.76 13.442 116.818 13.3992C116.877 13.3565 116.911 13.2879 116.911 13.2153V10.6098C116.911 10.5102 116.847 10.422 116.751 10.3927C116.138 10.2104 115.355 10.0234 114.181 10.0234C111.325 10.0234 109.816 11.6317 109.816 14.6726V15.327H108.33C108.205 15.327 108.103 15.4288 108.103 15.5534V18.2244C108.103 18.3491 108.205 18.4511 108.33 18.4511H109.816V29.057C109.816 29.1819 109.916 29.2837 110.041 29.2837H113.133C113.258 29.2837 113.36 29.1819 113.36 29.057V18.4518H116.247L120.669 29.0551C120.167 30.1693 119.673 30.3909 118.999 30.3909C118.455 30.3909 117.881 30.2282 117.294 29.9073C117.239 29.8769 117.174 29.8719 117.114 29.8903C117.055 29.9111 117.006 29.955 116.981 30.0123L115.933 32.3115C115.883 32.4202 115.925 32.5477 116.03 32.6041C117.124 33.1966 118.112 33.4495 119.332 33.4495C121.615 33.4495 122.877 32.386 123.99 29.5249L129.354 15.6635C129.381 15.5938 129.373 15.515 129.33 15.4531C129.288 15.3917 129.219 15.3547 129.144 15.3547H125.925C125.829 15.3547 125.742 15.4161 125.711 15.5066L122.414 24.9254L118.802 15.5004C118.769 15.4128 118.684 15.3547 118.591 15.3547H113.308L113.309 15.354ZM106.435 15.3404H103.343C103.218 15.3404 103.117 15.4421 103.117 15.5671V29.057C103.117 29.1819 103.218 29.2837 103.343 29.2837H106.435C106.56 29.2837 106.662 29.1819 106.662 29.057V15.568C106.662 15.5382 106.656 15.5087 106.645 15.4811C106.633 15.4536 106.617 15.4286 106.596 15.4075C106.574 15.3864 106.549 15.3698 106.522 15.3584C106.494 15.3471 106.465 15.3413 106.435 15.3414L106.435 15.3404ZM104.907 9.19809C103.682 9.19809 102.688 10.1897 102.688 11.4146C102.688 12.6403 103.682 13.6331 104.907 13.6331C106.131 13.6331 107.124 12.6403 107.124 11.4146C107.124 10.1899 106.131 9.19809 104.908 9.19809H104.907ZM131.994 19.6777C130.77 19.6777 129.818 18.6949 129.818 17.5015C129.818 16.3081 130.783 15.3141 132.006 15.3141C133.229 15.3141 134.182 16.2967 134.182 17.4891C134.182 18.6825 133.217 19.6777 131.994 19.6777H131.994ZM132.006 15.5305C130.892 15.5305 130.048 16.4165 130.048 17.5015C130.048 18.586 130.886 19.4601 131.995 19.4601C133.109 19.4601 133.954 18.5748 133.954 17.4891C133.954 16.4046 133.115 15.5305 132.007 15.5305H132.006ZM132.489 17.7129L133.104 18.5746H132.585L132.031 17.7841H131.555V18.5746H131.12V16.2904H132.139C132.669 16.2904 133.018 16.562 133.018 17.0191C133.021 17.3936 132.803 17.6224 132.491 17.7129L132.489 17.7129ZM132.121 16.6824H131.554V17.4048H132.121C132.404 17.4048 132.572 17.2665 132.572 17.0432C132.572 16.8082 132.403 16.6824 132.121 16.6824L132.121 16.6824Z" fill="#595F65"/>
</g>
<defs>
<clipPath id="clip0_14_1049">
<rect width="133.366" height="40" fill="white" transform="translate(0.815796)"/>
</clipPath>
</defs>
</svg>
