<svg width="45" height="31" viewBox="0 0 45 31" fill="none" xmlns="http://www.w3.org/2000/svg">
<path d="M23.5561 29.9717L14.656 29.8088C11.7742 29.7522 8.88537 29.8655 6.06026 29.2778C1.76241 28.3998 1.45795 24.0949 1.13932 20.4838C0.700335 15.4071 0.870267 10.2384 1.69868 5.20415C2.16599 2.37904 4.00692 0.693882 6.85327 0.50979C16.4615 -0.155776 26.1334 -0.0778904 35.7204 0.233651C36.7329 0.261973 37.7525 0.417743 38.7508 0.594755C43.6789 1.45857 43.7992 6.33703 44.1178 10.4437C44.4365 14.5929 44.3019 18.7633 43.693 22.8841C43.2045 26.2969 42.2698 29.1574 38.326 29.4336C33.3838 29.7947 28.5549 30.085 23.5986 29.9929C23.5986 29.9717 23.5703 29.9717 23.5561 29.9717ZM18.3237 21.3335C22.048 19.1952 25.7015 17.0923 29.4046 14.9681C25.6732 12.8298 22.0267 10.7269 18.3237 8.60278V21.3335Z" fill="#595F65"/>
</svg>
