<svg width="170" height="40" viewBox="0 0 170 40" fill="none" xmlns="http://www.w3.org/2000/svg">
<g clip-path="url(#clip0_14_1070)">
<path d="M148.798 13.4657C149.736 13.4657 150.507 12.9783 150.611 12.3487L151.537 1.88355C151.537 0.849167 150.325 0 148.801 0C147.279 0 146.069 0.849163 146.069 1.88373L146.994 12.3487C147.095 12.9781 147.867 13.4657 148.802 13.4657H148.798ZM143.142 16.7344C143.613 15.9237 143.577 15.0126 143.082 14.6078L134.48 8.57381C133.585 8.05587 132.244 8.67929 131.483 9.99916C130.72 11.3173 130.855 12.7896 131.747 13.3077L141.272 17.7425C141.867 17.9632 142.679 17.5384 143.145 16.7283L143.142 16.7344ZM154.46 16.7288C154.929 17.539 155.737 17.9639 156.333 17.743L165.857 13.3083C166.755 12.7903 166.882 11.3179 166.126 9.99972C165.361 8.68116 164.018 8.05643 163.126 8.57436L154.523 14.6083C154.032 15.0126 153.995 15.9245 154.463 16.735L154.46 16.7288ZM148.798 26.5383C149.736 26.5383 150.507 27.0215 150.611 27.6516L151.537 38.1153C151.537 39.1529 150.325 40.0002 148.801 40.0002C147.279 40.0002 146.069 39.1529 146.069 38.1153L146.994 27.6516C147.095 27.0215 147.867 26.5383 148.802 26.5383H148.798ZM154.46 23.2688C154.929 22.4564 155.737 22.0352 156.333 22.2585L165.857 26.6903C166.755 27.2088 166.882 28.6825 166.126 30.0018C165.361 31.316 164.018 31.9425 163.126 31.4253L154.523 25.3969C154.032 24.9895 153.995 24.077 154.463 23.2671H154.459M143.142 23.2676C143.613 24.077 143.577 24.9895 143.082 25.3977L134.48 31.4258C133.585 31.943 132.244 31.3166 131.483 30.0023C130.72 28.683 130.855 27.2093 131.747 26.6908L141.272 22.259C141.867 22.0357 142.679 22.4569 143.145 23.2695H143.142" fill="#595F65"/>
<path d="M94.5403 25.3777C94.5403 25.6988 94.5117 26.03 94.4238 26.3209C94.059 27.5291 92.808 28.5508 91.243 28.5508C89.9381 28.5508 88.9016 27.8096 88.9016 26.244C88.9016 23.8479 91.5389 23.1862 94.5411 23.2029L94.5403 25.3775V25.3777ZM99.2492 21.202C99.2492 17.251 97.5609 13.7745 91.8565 13.7745C88.9283 13.7745 86.6043 14.5969 85.3358 15.33L86.2649 18.5063C87.4242 17.7744 89.2719 17.1685 91.0204 17.1685C93.9139 17.1605 94.3878 18.8071 94.3878 19.8609V20.1103C88.0805 20.101 84.0934 22.285 84.0934 26.7339C84.0934 29.4525 86.1241 31.9987 89.6541 31.9987C91.8231 31.9987 93.6398 31.1329 94.727 29.7447H94.8344C94.8344 29.7447 95.5538 32.7586 99.5253 31.6054C99.3181 30.352 99.2499 29.0141 99.2499 27.4052L99.2494 21.202M0.974976 8.39381C0.974976 8.39381 5.09664 25.2826 5.7548 28.0236C6.52255 31.2229 7.90628 32.4006 11.8939 31.6054L14.4673 21.135C15.1199 18.533 15.5566 16.6778 15.9771 14.0336H16.0503C16.3455 16.7058 16.7643 18.541 17.3012 21.1436C17.3012 21.1436 18.3483 25.8973 18.8855 28.3933C19.4232 30.8885 20.9199 32.4621 24.8263 31.6054L30.9586 8.39307H26.0089L23.9144 18.4294C23.3512 21.3495 22.8408 23.634 22.4468 26.3049H22.3768C22.0189 23.6575 21.5631 21.4662 20.9912 18.6204L18.8123 8.39307H13.6542L11.3222 18.3625C10.6621 21.3929 10.0432 23.8388 9.65109 26.4208H9.57977C9.17722 23.9895 8.64136 20.9141 8.06143 17.9822C8.06143 17.9822 6.67696 10.8511 6.19002 8.39307L0.974976 8.39381ZM40.3215 25.3777C40.3215 25.6988 40.2929 26.03 40.2037 26.3209C39.8396 27.5291 38.5879 28.5508 37.0228 28.5508C35.7177 28.5508 34.6828 27.8096 34.6828 26.244C34.6828 23.8479 37.3193 23.1862 40.322 23.2029L40.3215 25.3775V25.3777ZM45.0298 21.202C45.0298 17.251 43.3415 13.7745 37.6382 13.7745C34.7093 13.7745 32.3834 14.5969 31.1157 15.33L32.0436 18.5063C33.2027 17.7744 35.0504 17.1685 36.7995 17.1685C39.6951 17.1605 40.1689 18.8071 40.1689 19.8609V20.1103C33.859 20.101 29.8738 22.285 29.8738 26.7339C29.8738 29.4525 31.9034 31.9987 35.4308 31.9987C37.6028 31.9987 39.4184 31.1329 40.5069 29.7447H40.6129C40.6129 29.7447 41.3344 32.7586 45.305 31.6054C45.0974 30.352 45.0298 29.0141 45.0298 27.4052V21.202ZM52.8877 26.6781V8.39381H48.1733V31.6062H52.8877V26.6781ZM114.562 8.39381V25.5171C114.562 27.879 115.007 29.532 115.956 30.5436C116.788 31.4281 118.155 32.0005 119.795 32.0005C121.189 32.0005 122.56 31.7345 123.207 31.4945L123.146 27.8115C122.665 27.9291 122.112 28.0243 121.355 28.0243C119.749 28.0243 119.212 26.9952 119.212 24.8758V18.3241H123.317V13.8822H119.212V8.39381H114.562ZM102.393 14.1682V31.6062H107.256V22.6776C107.256 22.195 107.285 21.7745 107.362 21.3899C107.721 19.5187 109.152 18.3241 111.206 18.3241C111.769 18.3241 112.172 18.3853 112.609 18.4473V13.8822C112.242 13.8092 111.994 13.775 111.538 13.775C109.723 13.775 107.658 14.9461 106.792 17.4581H106.66V14.1682H102.393ZM56.1888 14.1682V31.6062H60.927V21.3805C60.927 20.9007 60.9834 20.3932 61.1495 19.9533C61.5422 18.9238 62.5004 17.718 64.0294 17.718C65.9422 17.718 66.8355 19.3344 66.8355 21.6671V31.6049H71.5699V21.2547C71.5699 20.7969 71.6325 20.245 71.7678 19.8413C72.1566 18.6695 73.1887 17.7167 74.6103 17.7167C76.5486 17.7167 77.479 19.3047 77.479 22.0505V31.6043H82.2166V21.3333C82.2166 15.9174 79.4663 13.7734 76.3613 13.7734C74.9875 13.7734 73.902 14.1175 72.9202 14.719C72.0959 15.2269 71.3565 15.9465 70.7114 16.8924H70.6414C69.8927 15.0131 68.1311 13.7743 65.8354 13.7743C62.8863 13.7743 61.5609 15.2693 60.7569 16.5371H60.6863V14.1677H56.1888" fill="#595F65"/>
<path d="M168.246 30.7585H168.318C168.413 30.7585 168.473 30.7193 168.473 30.6611C168.473 30.5948 168.416 30.5588 168.328 30.5588C168.298 30.5588 168.267 30.5649 168.246 30.5649V30.7602V30.7584L168.246 30.7585ZM168.235 31.2287H167.983V30.4081C168.04 30.3969 168.174 30.3769 168.344 30.3769C168.53 30.3769 168.613 30.403 168.674 30.4441C168.725 30.48 168.762 30.5412 168.762 30.6239C168.762 30.7081 168.685 30.7795 168.571 30.8106V30.8211C168.664 30.8459 168.715 30.9135 168.741 31.0321C168.767 31.1505 168.782 31.1988 168.798 31.2292H168.513C168.488 31.1988 168.473 31.1262 168.457 31.0537C168.441 30.9707 168.401 30.929 168.317 30.929H168.235L168.235 31.2287ZM168.339 30.1407C167.978 30.1407 167.705 30.4354 167.705 30.811C167.705 31.177 167.978 31.4755 168.349 31.4755C168.722 31.4817 168.995 31.1772 168.995 30.805C168.995 30.4346 168.722 30.1407 168.345 30.1407H168.339ZM168.356 29.918C168.86 29.918 169.262 30.3149 169.262 30.8048C169.262 31.3006 168.86 31.6981 168.349 31.6981C167.838 31.6981 167.431 31.3 167.431 30.805C167.431 30.3149 167.838 29.9182 168.349 29.9182H168.354" fill="#595F65"/>
</g>
<defs>
<clipPath id="clip0_14_1070">
<rect width="168.35" height="40" fill="white" transform="translate(0.943115)"/>
</clipPath>
</defs>
</svg>
