<svg width="136" height="40" viewBox="0 0 136 40" fill="none" xmlns="http://www.w3.org/2000/svg">
<g clip-path="url(#clip0_14_1037)">
<path d="M132.437 23.8844C132.36 24.2696 132.226 24.5969 132.043 24.8857C131.86 25.1742 131.619 25.4057 131.311 25.5882C131.013 25.7618 130.638 25.8577 130.195 25.8577C129.762 25.8577 129.386 25.7713 129.088 25.5882C128.79 25.414 128.537 25.1737 128.347 24.8857C128.163 24.5972 128.029 24.2696 127.942 23.8844C127.858 23.502 127.816 23.1114 127.817 22.7198C127.817 22.3156 127.856 21.9111 127.933 21.5362C128.01 21.151 128.144 20.8141 128.328 20.5253C128.51 20.2265 128.751 19.9959 129.059 19.8035C129.357 19.6204 129.733 19.5243 130.175 19.5243C130.608 19.5243 130.974 19.6204 131.273 19.8035C131.572 19.9885 131.825 20.2384 132.014 20.5348C132.207 20.8331 132.341 21.1795 132.428 21.5552C132.514 21.9401 132.553 22.3251 132.553 22.7198C132.553 23.1145 132.514 23.4994 132.437 23.8844ZM134.998 20.7755C134.815 20.1306 134.546 19.5724 134.18 19.0815C133.804 18.6004 133.342 18.2054 132.784 17.9169C132.225 17.6281 131.552 17.4741 130.772 17.4741C130.156 17.4741 129.598 17.5993 129.088 17.84C128.577 18.0807 128.154 18.4751 127.826 19.0046H127.788V17.7435H125.208V31.0942H127.923V26.4062H127.961C128.281 26.8772 128.719 27.2557 129.232 27.5037C129.752 27.7539 130.31 27.8791 130.926 27.8791C131.648 27.8791 132.283 27.7349 132.832 27.4556C133.362 27.1844 133.825 26.7998 134.189 26.3293C134.555 25.8577 134.824 25.3185 134.998 24.7026C135.181 24.0865 135.267 23.4516 135.267 22.7872C135.267 22.0847 135.181 21.4109 134.998 20.7657V20.7755ZM121.609 23.8844C121.532 24.2696 121.397 24.5969 121.214 24.8857C121.031 25.1745 120.79 25.4057 120.482 25.5882C120.184 25.7618 119.809 25.8577 119.366 25.8577C118.933 25.8577 118.567 25.7713 118.259 25.5882C117.961 25.4139 117.708 25.1735 117.517 24.8857C117.335 24.5972 117.2 24.2696 117.114 23.8844C117.029 23.5021 116.987 23.1114 116.989 22.7198C116.989 22.3156 117.027 21.9111 117.104 21.5362C117.181 21.151 117.315 20.8141 117.498 20.5253C117.682 20.2265 117.922 19.9959 118.23 19.8035C118.528 19.6204 118.904 19.5243 119.346 19.5243C119.78 19.5243 120.145 19.6204 120.444 19.8035C120.743 19.9884 120.996 20.2384 121.185 20.5348C121.377 20.8331 121.512 21.1795 121.599 21.5552C121.686 21.9401 121.724 22.3251 121.724 22.7198C121.724 23.1145 121.686 23.4994 121.609 23.8844ZM123.351 19.0815C122.985 18.6004 122.513 18.2054 121.955 17.9169C121.397 17.6281 120.723 17.4741 119.943 17.4741C119.327 17.4741 118.769 17.5993 118.259 17.84C117.749 18.0807 117.325 18.4751 116.998 19.0046H116.959V17.7435H114.379V31.0942H117.094V26.4062H117.133C117.453 26.8772 117.891 27.2557 118.403 27.5037C118.923 27.7539 119.481 27.8791 120.097 27.8791C120.828 27.8791 121.454 27.7349 122.003 27.4556C122.533 27.1842 122.996 26.7997 123.36 26.3293C123.726 25.8577 123.996 25.3185 124.179 24.7026C124.356 24.0796 124.447 23.435 124.448 22.7872C124.448 22.0847 124.361 21.4109 124.179 20.7657C123.996 20.1211 123.726 19.5626 123.351 19.072V19.0815ZM105.485 22.3541L107.266 17.3391H107.304L109.028 22.3541H105.485ZM105.774 13.9702L100.605 27.6287H103.628L104.696 24.5872H109.807L110.837 27.6287H113.956L108.845 13.9702H105.764H105.774ZM100.384 23.2973C100.201 22.9893 99.9697 22.7198 99.6714 22.5082C99.3827 22.2965 99.0455 22.1325 98.6701 21.998C98.2898 21.873 97.9044 21.7639 97.515 21.6709C97.1301 21.584 96.7546 21.4973 96.3887 21.4204C96.0228 21.3436 95.6859 21.2566 95.4069 21.1605C95.1184 21.0643 94.8872 20.9393 94.7139 20.785C94.5308 20.631 94.4444 20.4387 94.4444 20.1885C94.4444 19.9864 94.4925 19.8226 94.5982 19.6973C94.7041 19.5724 94.8294 19.4857 94.9736 19.4183C95.1182 19.351 95.2817 19.3124 95.4648 19.2934C95.631 19.275 95.798 19.2654 95.9652 19.2646C96.4466 19.2646 96.8701 19.3607 97.2265 19.5436C97.5826 19.7264 97.7848 20.0825 97.8135 20.6022H100.393C100.345 19.9861 100.182 19.4857 99.9216 19.0812C99.6616 18.6767 99.3346 18.3594 98.9398 18.1187C98.5451 17.878 98.0928 17.705 97.5921 17.599C97.0918 17.4931 96.5718 17.445 96.0328 17.445C95.4941 17.445 94.9742 17.4934 94.464 17.5892C93.9538 17.6854 93.492 17.8492 93.0878 18.0899C92.674 18.3306 92.3464 18.6484 92.106 19.0524C91.8555 19.4566 91.7306 19.9864 91.7306 20.6212C91.7306 21.0545 91.817 21.4202 92.0001 21.7185C92.1734 22.0173 92.4138 22.2672 92.7026 22.4693C93.0011 22.6619 93.3285 22.8257 93.7039 22.9507C94.0793 23.0757 94.4643 23.1819 94.859 23.2683C95.8313 23.4704 96.5821 23.6725 97.1306 23.8746C97.6696 24.0767 97.9393 24.3848 97.9393 24.789C97.9393 25.0297 97.8815 25.2318 97.766 25.3954C97.653 25.5552 97.5047 25.6869 97.3327 25.7803C97.1594 25.8765 96.9668 25.9441 96.7552 25.9919C96.5562 26.0372 96.3528 26.0598 96.1488 26.0593C95.8793 26.0593 95.6194 26.0308 95.3787 25.9631C95.1285 25.8957 94.9071 25.799 94.7147 25.6646C94.5221 25.5298 94.3681 25.3565 94.2431 25.1449C94.1179 24.9333 94.06 24.6828 94.06 24.394H91.4804C91.5092 25.058 91.654 25.6067 91.933 26.0495C92.2024 26.4926 92.5586 26.8389 92.9821 27.1084C93.4056 27.3779 93.8965 27.5703 94.4453 27.6857C94.994 27.8014 95.552 27.8593 96.1295 27.8593C96.6881 27.8593 97.2461 27.8014 97.7853 27.6952C98.3243 27.5895 98.8056 27.3969 99.2292 27.1274C99.6527 26.858 99.9895 26.5018 100.25 26.0685C100.509 25.626 100.644 25.087 100.644 24.4323C100.644 23.9705 100.558 23.5856 100.374 23.2772L100.384 23.2973ZM89.1504 14.7789H86.436V17.7435H84.7897V19.5626H86.436V25.3959C86.436 25.8966 86.5223 26.2913 86.6861 26.5991C86.85 26.9074 87.0809 27.138 87.3696 27.3116C87.6584 27.4752 87.986 27.5906 88.3612 27.6485C88.7563 27.7073 89.1554 27.7362 89.5549 27.7349C89.8243 27.7349 90.0938 27.7254 90.3826 27.7159C90.6375 27.7072 90.8915 27.6815 91.143 27.6387V25.5306C91.0101 25.5606 90.875 25.5799 90.739 25.5882C90.5917 25.5997 90.444 25.6062 90.2962 25.6075C89.8341 25.6075 89.5356 25.5306 89.3818 25.3763C89.2278 25.2226 89.1506 24.9142 89.1506 24.4622V19.5626H91.143V17.7435H89.1506V14.7789H89.1504ZM81.363 23.8075C81.363 23.9613 81.344 24.1637 81.3149 24.4236C81.2825 24.6895 81.1939 24.9455 81.0549 25.1745C80.9107 25.425 80.6988 25.6366 80.4005 25.8197C80.112 26.0022 79.6882 26.0892 79.159 26.0892C78.9472 26.0892 78.7353 26.0696 78.5236 26.0313C78.3215 25.9925 78.1387 25.9251 77.9847 25.8292C77.8306 25.7328 77.7152 25.6078 77.6187 25.4345C77.5323 25.2709 77.484 25.0688 77.484 24.8184C77.484 24.5584 77.5323 24.3563 77.6187 24.1832C77.7054 24.0191 77.8304 23.8844 77.9752 23.7692C78.1194 23.6633 78.2927 23.5769 78.4948 23.5095C78.697 23.4421 78.8896 23.3938 79.1012 23.3552C79.3185 23.3178 79.5367 23.2857 79.7556 23.259C79.977 23.2302 80.1794 23.2012 80.3815 23.1629C80.5836 23.1246 80.7664 23.0762 80.9398 23.0186C81.1131 22.961 81.2573 22.8839 81.3731 22.7779V23.7888L81.363 23.8075ZM84.0774 25.4342V20.2844C84.0774 19.6878 83.9427 19.2064 83.6735 18.8408C83.404 18.4749 83.0571 18.1959 82.6433 17.9937C82.2198 17.7916 81.7577 17.6569 81.2476 17.58C80.7468 17.5116 80.242 17.4762 79.7366 17.4741C79.1876 17.4741 78.6391 17.5319 78.1001 17.6379C77.5614 17.7438 77.0703 17.9264 76.637 18.1866C76.2104 18.4404 75.8455 18.7856 75.5685 19.1975C75.2895 19.621 75.1257 20.1502 75.0874 20.7856H77.8018C77.8499 20.2469 78.0327 19.8715 78.3405 19.6403C78.6489 19.4091 79.0626 19.2939 79.6018 19.2939C79.8425 19.2939 80.0732 19.3129 80.2853 19.342C80.4825 19.3679 80.6724 19.4334 80.8436 19.5346C81.0074 19.6308 81.1324 19.7655 81.2288 19.9388C81.325 20.1121 81.3731 20.3428 81.3731 20.6413C81.3826 20.9203 81.3057 21.1325 81.1226 21.2862C80.9398 21.4305 80.6991 21.5462 80.3913 21.6231C80.0835 21.7 79.7369 21.7578 79.3421 21.7964C78.9474 21.835 78.5432 21.8831 78.139 21.9505C77.7347 22.0178 77.3302 22.1042 76.926 22.2102C76.5218 22.3161 76.1654 22.4796 75.8573 22.7013C75.5397 22.9224 75.2895 23.2112 75.0874 23.5674C74.8853 23.9333 74.7889 24.3954 74.7889 24.9536C74.7889 25.4638 74.8753 25.9066 75.0489 26.2723C75.2113 26.6288 75.4553 26.9421 75.7611 27.1869C76.079 27.4341 76.4419 27.6172 76.8296 27.7259C77.2338 27.8414 77.6766 27.899 78.1482 27.899C78.7643 27.899 79.3612 27.8126 79.9482 27.6295C80.5289 27.4522 81.0553 27.1312 81.4787 26.6961C81.4882 26.8596 81.5173 27.0229 81.5461 27.1869C81.5749 27.3407 81.623 27.5045 81.6713 27.6585H84.4243C84.2991 27.4564 84.2029 27.1481 84.1548 26.7439C84.1039 26.3191 84.0781 25.8916 84.0777 25.4638V25.4342H84.0774ZM72.8927 18.6001C72.6232 18.2537 72.2573 17.9745 71.7955 17.7819C71.3334 17.5797 70.7368 17.4833 70.005 17.4833C69.4948 17.4833 68.9751 17.618 68.4361 17.878C67.8972 18.138 67.4639 18.5615 67.1175 19.1293H67.0596V13.9797H64.3452V27.6384H67.0596V22.4503C67.0596 21.4395 67.2235 20.7177 67.5603 20.2749C67.8877 19.8321 68.4266 19.6204 69.1677 19.6204C69.8126 19.6204 70.2747 19.8226 70.5249 20.2265C70.7754 20.6307 70.9101 21.2373 70.9101 22.0553V27.6384H73.6245V21.5552C73.6245 20.9391 73.5667 20.3811 73.4607 19.8804C73.3548 19.3797 73.1622 18.9467 72.8927 18.6001ZM58.5407 23.3938H58.5021L56.1729 13.98H53.3621L50.994 23.2783H50.9555L48.7895 13.98H45.7866L49.4057 27.6387H52.4474L54.719 18.3401H54.7576L57.0678 27.6387H60.0517L61.6879 21.5745L63.7286 13.98H60.783L58.5407 23.3938Z" fill="#595F65"/>
<path d="M20.3268 35.8588C17.0057 35.8588 13.9064 34.8578 11.3172 33.1542L5.02181 35.1656L7.06251 29.0823C5.09896 26.3869 3.94414 23.0662 3.94414 19.4854C3.94414 10.4566 11.2884 3.11232 20.3173 3.11232C29.3461 3.11232 36.6904 10.4566 36.6904 19.4854C36.6904 28.514 29.3461 35.8586 20.3173 35.8586H20.3268V35.8588ZM20.3268 0.0126953C9.57453 0.0126953 0.854026 8.73402 0.854026 19.4857C0.854026 23.1626 1.87437 26.6086 3.64532 29.5444L0.131958 39.9883L10.913 36.5328C13.7946 38.1262 17.034 38.9609 20.3268 38.9585C31.0787 38.9585 39.7995 30.2377 39.7995 19.4857C39.7992 8.73402 31.0787 0.0126953 20.3268 0.0126953Z" fill="#595F65"/>
<path d="M20.3269 3.1123C11.298 3.1123 3.95374 10.4566 3.95374 19.4854C3.95374 23.0662 5.10883 26.3869 7.07237 29.0823L5.03168 35.1656L11.3268 33.1542C13.916 34.8675 17.0058 35.8588 20.3364 35.8588C29.3652 35.8588 36.7095 28.5143 36.7095 19.4857C36.7095 10.4569 29.3652 3.11258 20.3364 3.11258H20.3269V3.1123Z" fill="#070809"/>
<path d="M15.7545 11.4288C15.4369 10.6684 15.1962 10.6396 14.7151 10.6201C14.5324 10.6083 14.3494 10.602 14.1663 10.6011C13.5404 10.6011 12.886 10.7839 12.4913 11.1881C12.0102 11.679 10.8165 12.8243 10.8165 15.1731C10.8165 17.5218 12.5299 19.7935 12.7608 20.1113C13.0015 20.4286 16.1011 25.3184 20.9138 27.3113C24.6774 28.8706 25.7941 28.7261 26.6507 28.5433C27.9019 28.2738 29.471 27.3494 29.8658 26.2331C30.2605 25.1163 30.2605 24.1633 30.1448 23.9612C30.0293 23.7591 29.7115 23.6439 29.2304 23.403C28.7492 23.1623 26.41 22.0072 25.9672 21.8532C25.5339 21.6896 25.1202 21.7475 24.7931 22.2096C24.331 22.8545 23.8787 23.5092 23.5128 23.9036C23.224 24.2117 22.7521 24.2503 22.3577 24.0865C21.8282 23.8653 20.346 23.3451 18.517 21.7184C17.1019 20.4577 16.1394 18.8888 15.8604 18.4172C15.5811 17.9361 15.8316 17.6566 16.0527 17.3969C16.2934 17.0983 16.5243 16.8867 16.765 16.6074C17.0057 16.3284 17.1405 16.1839 17.2945 15.8566C17.4583 15.539 17.3426 15.2117 17.2271 14.971C17.1117 14.7303 16.1492 12.3815 15.7545 11.4288Z" fill="#595F65"/>
</g>
<defs>
<clipPath id="clip0_14_1037">
<rect width="135.135" height="40" fill="white" transform="translate(0.131714)"/>
</clipPath>
</defs>
</svg>
